<svg width="42" height="42" viewBox="0 0 42 42" fill="none" xmlns="http://www.w3.org/2000/svg">
<path fill-rule="evenodd" clip-rule="evenodd" d="M29.2869 14.243C29.676 14.243 29.9998 14.566 29.9998 14.977V15.357C29.9998 15.758 29.676 16.091 29.2869 16.091H12.7137C12.3237 16.091 11.9998 15.758 11.9998 15.357V14.977C11.9998 14.566 12.3237 14.243 12.7137 14.243H15.6294C16.2217 14.243 16.7371 13.822 16.8704 13.228L17.0231 12.546C17.2604 11.617 18.0413 11 18.9351 11H23.0645C23.9486 11 24.7383 11.617 24.9669 12.497L25.1302 13.227C25.2625 13.822 25.778 14.243 26.3712 14.243H29.2869ZM27.8056 28.1341C28.1101 25.2971 28.643 18.5572 28.643 18.4892C28.6625 18.2832 28.5954 18.0882 28.4621 17.9312C28.3191 17.7842 28.1383 17.6972 27.9389 17.6972H14.0683C13.868 17.6972 13.6774 17.7842 13.5451 17.9312C13.4109 18.0882 13.3448 18.2832 13.3545 18.4892C13.3563 18.5017 13.3754 18.7391 13.4074 19.136C13.5494 20.8992 13.945 25.8102 14.2006 28.1341C14.3815 29.846 15.5048 30.922 17.1319 30.961C18.3874 30.99 19.6809 31 21.0036 31C22.2494 31 23.5147 30.99 24.8092 30.961C26.4927 30.932 27.615 29.875 27.8056 28.1341Z" fill="black"/>
</svg>
