<svg width="30" height="30" viewBox="0 0 30 30" fill="none" xmlns="http://www.w3.org/2000/svg">
<g clip-path="url(#clip0_3017_48)">
<path fill-rule="evenodd" clip-rule="evenodd" d="M14.3999 22.8C15.0626 22.8 15.5999 23.3609 15.5999 24.0528V28.7472C15.5999 29.4391 15.0626 30 14.3999 30C13.7372 30 13.1999 29.4391 13.1999 28.7472V24.0528C13.1999 23.3609 13.7372 22.8 14.3999 22.8Z" fill="black"/>
<path fill-rule="evenodd" clip-rule="evenodd" d="M14.2163 2.26664C11.8785 2.26664 9.98235 4.236 9.98235 6.66394V13.5401C9.98235 15.9693 11.8784 17.9374 14.2163 17.9374H14.5835C16.9214 17.9374 18.8175 15.9693 18.8175 13.5401V6.66394C18.8175 4.236 16.9213 2.26664 14.5835 2.26664H14.2163ZM7.7999 6.66394C7.7999 2.98416 10.6732 0 14.2163 0H14.5835C18.1266 0 20.9999 2.98416 20.9999 6.66394V13.5401C20.9999 17.2215 18.1264 20.2041 14.5835 20.2041H14.2163C10.6734 20.2041 7.7999 17.2215 7.7999 13.5401V6.66394Z" fill="black"/>
<path d="M4.60758 13.3795C4.60758 12.7529 4.1134 12.2449 3.5038 12.2449C2.8942 12.2449 2.40002 12.7529 2.40002 13.3795C2.40002 20.1926 7.77185 25.7143 14.4 25.7143C15.8095 25.7143 17.1622 25.4646 18.4185 25.0059C18.1484 24.3231 18 23.5789 18 22.8C18 22.7811 18.0001 22.7622 18.0003 22.7433C16.8859 23.1963 15.6713 23.4452 14.4 23.4452C8.99105 23.4452 4.60758 18.9394 4.60758 13.3795Z" fill="black"/>
<path d="M23.6083 16.8126C23.7378 16.8042 23.8684 16.8 24 16.8C24.6447 16.8 25.2657 16.9017 25.8478 17.0899C26.2066 15.9189 26.4 14.6724 26.4 13.3795C26.4 12.7529 25.9058 12.2449 25.2962 12.2449C24.6866 12.2449 24.1925 12.7529 24.1925 13.3795C24.1925 14.5852 23.9863 15.7413 23.6083 16.8126Z" fill="black"/>
<path fill-rule="evenodd" clip-rule="evenodd" d="M24.6 28.8C27.5824 28.8 30 26.3823 30 23.4C30 20.4177 27.5824 18 24.6 18C21.6177 18 19.2 20.4177 19.2 23.4C19.2 26.3823 21.6177 28.8 24.6 28.8ZM25.2526 25.4514C25.2526 25.8785 25.0034 26.1396 24.5961 26.1396C24.1887 26.1396 23.9435 25.8785 23.9435 25.4514V21.7731H22.9191C22.6185 21.7731 22.3931 21.5438 22.3931 21.2392C22.3931 20.9307 22.6185 20.7013 22.9191 20.7013H26.2849C26.5855 20.7013 26.807 20.9307 26.807 21.2392C26.807 21.5438 26.5855 21.7731 26.2849 21.7731H25.2526V25.4514Z" fill="black"/>
</g>
<defs>
<clipPath id="clip0_3017_48">
<rect width="30" height="30" fill="white"/>
</clipPath>
</defs>
</svg>
