<svg width="30" height="30" viewBox="0 0 30 30" fill="none" xmlns="http://www.w3.org/2000/svg">
<path d="M8.125 9.37451C8.125 5.92826 10.9288 3.12451 14.375 3.12451C17.8212 3.12451 20.625 5.92826 20.625 9.37451C20.625 12.8208 17.8212 15.6245 14.375 15.6245C10.9288 15.6245 8.125 12.8208 8.125 9.37451ZM19.5213 16.9633C18.8225 16.7858 18.0625 16.8858 17.4338 17.2358C15.5363 18.2908 13.2137 18.2908 11.3162 17.2358C10.6887 16.8871 9.92749 16.7883 9.22874 16.9633C6.73874 17.5921 5 19.8521 5 22.4583V23.722C5 24.5195 5.21248 25.2994 5.61623 25.9794C5.94498 26.5319 6.56127 26.8757 7.22252 26.8757H21.5263C22.1875 26.8757 22.8037 26.5332 23.1325 25.9782C23.5362 25.2995 23.7488 24.5195 23.7488 23.722V22.4583C23.75 19.8521 22.0113 17.5921 19.5213 16.9633Z" fill="black"/>
<path d="M23.0927 14.9077L23.0927 14.9077C23.0664 15.0307 23.0114 15.1337 22.9229 15.2054C22.8344 15.2771 22.7225 15.3091 22.5978 15.3091H20.8607C20.5986 15.3091 20.4 15.0844 20.4 14.8203C20.4 14.5546 20.597 14.3248 20.8607 14.3248H22.2822L23.0817 10.2782C23.0817 10.2782 23.0817 10.2782 23.0817 10.2781L23.0817 10.2781L23.0927 14.9077ZM23.0927 14.9077L23.093 14.9063M23.0927 14.9077L23.093 14.9063M23.093 14.9063L23.4817 12.9538M23.093 14.9063L23.4817 12.9538M23.4817 12.9538L24.3541 18.7133L23.4817 12.9538ZM25.5949 12.3048C25.6937 11.81 26.3768 11.7916 26.479 12.2912L25.5949 12.3048ZM25.5949 12.3048C25.5948 12.3049 25.5948 12.305 25.5948 12.305L24.8167 16.1202L23.9426 10.2864C23.9426 10.2863 23.9426 10.2862 23.9426 10.2861L23.9426 10.2859L23.8437 10.3008L25.5949 12.3048ZM24.3541 18.7134C24.3927 18.9687 24.5948 19.1 24.7956 19.1C24.9956 19.1 25.1994 18.9698 25.2455 18.7169C25.2455 18.7167 25.2456 18.7164 25.2456 18.7162L26.0569 14.5263L26.1188 14.8641C26.1188 14.8642 26.1188 14.8644 26.1189 14.8645C26.1426 14.9996 26.1938 15.1134 26.2821 15.1932C26.3716 15.2739 26.4871 15.3091 26.6175 15.3091H28.1393C28.4014 15.3091 28.6 15.0844 28.6 14.8203C28.6 14.5479 28.4091 14.3248 28.1393 14.3248H26.8961L26.479 12.2913L24.3541 18.7134Z" fill="black" stroke="black" stroke-width="0.2"/>
</svg>
