<svg width="30" height="30" viewBox="0 0 30 30" fill="none" xmlns="http://www.w3.org/2000/svg">
<path d="M27.375 23.442L27.0917 23.192C26.2879 22.4758 25.5843 21.6545 25 20.7503C24.3619 19.5024 23.9794 18.1397 23.875 16.742V12.6253C23.8805 10.43 23.0842 8.30822 21.6356 6.65864C20.1871 5.00905 18.186 3.94521 16.0084 3.66699V2.59199C16.0084 2.29694 15.8911 2.01397 15.6825 1.80534C15.4739 1.5967 15.1909 1.47949 14.8959 1.47949C14.6008 1.47949 14.3178 1.5967 14.1092 1.80534C13.9006 2.01397 13.7834 2.29694 13.7834 2.59199V3.68366C11.6252 3.98193 9.64833 5.05221 8.21879 6.69625C6.78926 8.34029 6.00396 10.4467 6.00835 12.6253V16.742C5.90398 18.1397 5.5215 19.5024 4.88335 20.7503C4.30909 21.6523 3.61685 22.4734 2.82502 23.192L2.54169 23.442V25.792H27.375V23.442Z" fill="black"/>
<path d="M12.7666 26.6252C12.8397 27.1534 13.1014 27.6373 13.5035 27.9876C13.9056 28.3379 14.4208 28.5309 14.9541 28.5309C15.4874 28.5309 16.0026 28.3379 16.4047 27.9876C16.8068 27.6373 17.0685 27.1534 17.1416 26.6252H12.7666Z" fill="black"/>
</svg>
