<svg width="30" height="30" viewBox="0 0 30 30" fill="none" xmlns="http://www.w3.org/2000/svg">
<path fill-rule="evenodd" clip-rule="evenodd" d="M9.375 10V9H12.5H13.5C13.7761 9 14 8.77614 14 8.5C14 8.22386 13.7761 8 13.5 8H12.5H9.39185C9.61589 5.10235 12.046 2.8125 15 2.8125C18.1012 2.8125 20.625 5.33625 20.625 8.4375V13.4375C20.625 16.5387 18.1012 19.0625 15 19.0625C11.8988 19.0625 9.375 16.5387 9.375 13.4375V13H11.5C11.7761 13 12 12.7761 12 12.5C12 12.2239 11.7761 12 11.5 12H9.375V11H12.5C12.7761 11 13 10.7761 13 10.5C13 10.2239 12.7761 10 12.5 10H9.375ZM25 13.4375C25 12.7463 24.44 12.1875 23.75 12.1875C23.06 12.1875 22.5 12.7463 22.5 13.4375C22.5 17.5737 19.1362 20.9375 15 20.9375C10.8637 20.9375 7.5 17.5737 7.5 13.4375C7.5 12.7463 6.94 12.1875 6.25 12.1875C5.56 12.1875 5 12.7463 5 13.4375C5 18.5275 8.825 22.7324 13.75 23.3511V24.6875H10C9.31 24.6875 8.75 25.2463 8.75 25.9375C8.75 26.6287 9.31 27.1875 10 27.1875H20C20.69 27.1875 21.25 26.6287 21.25 25.9375C21.25 25.2463 20.69 24.6875 20 24.6875H16.25V23.3511C21.175 22.7324 25 18.5275 25 13.4375Z" fill="black"/>
</svg>
