<svg width="78" height="60" viewBox="0 0 78 60" fill="none" xmlns="http://www.w3.org/2000/svg">
<path d="M0 60V0H78V60H0ZM7.09091 52.9412H70.9091V7.05882H7.09091V52.9412ZM28.3636 21.1765H35.4545V14.1176H28.3636V21.1765ZM14.1818 21.1765H21.2727V14.1176H14.1818V21.1765ZM24.8182 45.8824H53.1818V42.3529H24.8182V45.8824ZM42.5455 21.1765H49.6364V14.1176H42.5455V21.1765ZM28.3636 35.2941H35.4545V28.2353H28.3636V35.2941ZM14.1818 35.2941H21.2727V28.2353H14.1818V35.2941ZM42.5455 35.2941H49.6364V28.2353H42.5455V35.2941ZM56.7273 21.1765H63.8182V14.1176H56.7273V21.1765ZM56.7273 35.2941H63.8182V28.2353H56.7273V35.2941Z" fill="black"/>
</svg>
