<svg width="30" height="30" viewBox="0 0 30 30" fill="none" xmlns="http://www.w3.org/2000/svg">
<path d="M2 15.9375C1.44772 15.9375 1 16.3852 1 16.9375C1 17.4898 1.44772 17.9375 2 17.9375V15.9375ZM8.19048 16.9375V17.9375C8.65313 17.9375 9.05538 17.6201 9.16303 17.1702L8.19048 16.9375ZM11.2857 4L12.2684 3.81485C12.1811 3.35126 11.7816 3.01176 11.31 3.0003C10.8384 2.98883 10.4229 3.30852 10.3132 3.76732L11.2857 4ZM15.619 27L14.6363 27.1851C14.7233 27.6467 15.1197 27.9855 15.5891 27.9996C16.0585 28.0136 16.4745 27.6991 16.5889 27.2436L15.619 27ZM19.9524 9.75L20.9206 9.49983C20.8062 9.05718 20.4062 8.74847 19.949 8.75001C19.4918 8.75155 19.0939 9.06295 18.9825 9.50636L19.9524 9.75ZM21.8095 16.9375L20.8413 17.1877C20.9554 17.6291 21.3536 17.9375 21.8095 17.9375V16.9375ZM28 17.9375C28.5523 17.9375 29 17.4898 29 16.9375C29 16.3852 28.5523 15.9375 28 15.9375V17.9375ZM2 17.9375H8.19048V15.9375H2V17.9375ZM9.16303 17.1702L12.2583 4.23268L10.3132 3.76732L7.21792 16.7048L9.16303 17.1702ZM10.303 4.18515L14.6363 27.1851L16.6018 26.8149L12.2684 3.81485L10.303 4.18515ZM16.5889 27.2436L20.9222 9.99364L18.9825 9.50636L14.6492 26.7564L16.5889 27.2436ZM18.9842 10.0002L20.8413 17.1877L22.7777 16.6873L20.9206 9.49983L18.9842 10.0002ZM21.8095 17.9375H28V15.9375H21.8095V17.9375Z" fill="black"/>
</svg>
