<svg width="30" height="30" viewBox="0 0 30 30" fill="none" xmlns="http://www.w3.org/2000/svg">
<g clip-path="url(#clip0_3019_150)">
<path d="M15 2C7.83171 2 2 7.83171 2 15C2 22.1683 7.83171 28 15 28C22.1683 28 28 22.1683 28 15C28 7.83171 22.1683 2 15 2ZM14.2383 8.38098C13.0794 8.33119 11.9323 8.16833 10.8369 7.90352C11.0119 7.48894 11.2017 7.09082 11.4064 6.71353C12.2463 5.16589 13.2774 4.07985 14.2383 3.68649V8.38098ZM14.2383 9.90561V14.2383H9.48051C9.54756 12.5472 9.83578 10.8685 10.3125 9.34146C11.5756 9.65964 12.9017 9.85225 14.2383 9.90561ZM14.2383 15.7617V20.0944C12.9017 20.1478 11.5756 20.3404 10.3125 20.6585C9.83578 19.1315 9.54756 17.4528 9.48051 15.7617H14.2383ZM14.2383 21.619V26.3135C13.2774 25.9202 12.2463 24.8341 11.4064 23.2865C11.2017 22.9092 11.0119 22.5111 10.8369 22.0965C11.9323 21.8317 13.0792 21.6688 14.2383 21.619ZM15.7617 21.619C16.9206 21.6688 18.0677 21.8317 19.1631 22.0965C18.9881 22.5111 18.7983 22.9092 18.5936 23.2865C17.7537 24.8341 16.7226 25.9202 15.7617 26.3135V21.619ZM15.7617 20.0944V15.7617H20.5195C20.4524 17.4528 20.1642 19.1315 19.6875 20.6585C18.4244 20.3404 17.0983 20.1478 15.7617 20.0944ZM15.7617 14.2383V9.90561C17.0983 9.85225 18.4244 9.65964 19.6875 9.34146C20.1642 10.8685 20.4524 12.5472 20.5195 14.2383H15.7617ZM15.7617 8.38098V3.68649C16.7226 4.07985 17.7537 5.16589 18.5936 6.71353C18.7983 7.09082 18.9881 7.48894 19.1631 7.90352C18.0677 8.16833 16.9206 8.33119 15.7617 8.38098ZM19.9325 5.98692C19.5511 5.28392 19.1367 4.66423 18.6999 4.13559C20.2229 4.6557 21.6026 5.48784 22.7628 6.55504C22.101 6.90952 21.3879 7.21738 20.6377 7.47466C20.4249 6.95772 20.1896 6.46042 19.9325 5.98692V5.98692ZM10.0675 5.98692C9.81039 6.46042 9.57513 6.95772 9.36229 7.47466C8.61208 7.21738 7.89896 6.90932 7.23721 6.55504C8.39745 5.48784 9.77707 4.6557 11.3001 4.13559C10.8633 4.66423 10.4491 5.28372 10.0675 5.98692ZM8.84694 8.90645C8.32703 10.5697 8.02135 12.383 7.95549 14.2383H3.54942C3.71248 11.7625 4.66324 9.49837 6.15414 7.69603C6.98152 8.17052 7.88765 8.57637 8.84694 8.90645ZM7.95549 15.7617C8.02135 17.6172 8.32703 19.4303 8.84694 21.0936C7.88765 21.4236 6.98152 21.8295 6.15414 22.304C4.66324 20.5016 3.71248 18.2375 3.54942 15.7617H7.95549ZM9.36229 22.5253C9.57513 23.0423 9.81039 23.5396 10.0675 24.0131C10.4491 24.7161 10.8633 25.3358 11.3001 25.8644C9.77707 25.3443 8.39745 24.5122 7.23741 23.445C7.89876 23.0907 8.61208 22.7826 9.36229 22.5253ZM19.9325 24.0131C20.1896 23.5396 20.4249 23.0423 20.6377 22.5253C21.3879 22.7826 22.101 23.0907 22.7628 23.445C21.6026 24.5122 20.2229 25.3443 18.6999 25.8644C19.1367 25.3358 19.5509 24.7163 19.9325 24.0131V24.0131ZM21.1531 21.0936C21.673 19.4303 21.9787 17.617 22.0445 15.7617H26.4506C26.2875 18.2375 25.3368 20.5016 23.8459 22.304C23.0185 21.8295 22.1124 21.4236 21.1531 21.0936V21.0936ZM22.0445 14.2383C21.9787 12.3828 21.673 10.5697 21.1531 8.90645C22.1124 8.57637 23.0185 8.17052 23.8459 7.69603C25.3368 9.49837 26.2875 11.7625 26.4506 14.2383H22.0445Z" fill="black"/>
</g>
<defs>
<clipPath id="clip0_3019_150">
<rect width="26" height="26" fill="white" transform="translate(2 2)"/>
</clipPath>
</defs>
</svg>
