<svg width="179" height="67" viewBox="0 0 179 67" fill="none" xmlns="http://www.w3.org/2000/svg">
<path d="M36 32.0153V28.8974H39.2004V27.6457H36V25.458H39.5041V24.1776H34.4231V32.0153H36Z" fill="black"/>
<path d="M43.1485 32.1244C44.8071 32.1244 45.6131 31.154 45.7591 30.1779H44.3341C44.2056 30.6717 43.7734 30.9703 43.1602 30.9703C42.3776 30.9703 41.8461 30.3846 41.8461 29.4601V29.2936H45.8175V28.6965C45.8175 26.9452 44.7721 25.814 43.0842 25.814C41.4548 25.814 40.3393 26.8705 40.3393 28.6563V29.2132C40.3393 31.0794 41.449 32.1244 43.1485 32.1244ZM41.8461 28.3347V28.3232C41.8461 27.5423 42.3425 26.9394 43.0959 26.9394C43.8435 26.9394 44.3282 27.5366 44.3282 28.3232V28.3347H41.8461Z" fill="black"/>
<path d="M48.8019 32.1072C49.713 32.1072 50.2386 31.7225 50.4839 31.2746H50.5481V32.0153H52.0024V27.8983C52.0024 26.4801 50.9161 25.8255 49.491 25.8255C47.7039 25.8255 47.0381 26.7672 46.9914 27.7835H48.4281C48.469 27.2954 48.8311 26.9681 49.4618 26.9681C50.1101 26.9681 50.4839 27.3069 50.4839 27.9156V28.4668H48.9713C47.5345 28.4668 46.7636 29.1673 46.7636 30.2583C46.7636 31.4067 47.5929 32.1072 48.8019 32.1072ZM49.2983 31.0047C48.7844 31.0047 48.2938 30.7291 48.2938 30.1607C48.2938 29.6956 48.6267 29.374 49.3042 29.374H50.4839V30.0171C50.4839 30.6085 49.9583 31.0047 49.2983 31.0047Z" fill="black"/>
<path d="M53.9355 25.9231H53.0303V27.0945H53.9063V30.2927C53.9063 31.5387 54.4144 32.0497 55.9563 32.0497C56.2658 32.0497 56.5403 32.021 56.6571 31.9981V30.8784C56.587 30.8841 56.4585 30.8899 56.33 30.8899C55.6934 30.8899 55.4306 30.7061 55.4306 30.0975V27.0945H56.6337V25.9231H55.4306V24.4646H53.9355V25.9231Z" fill="black"/>
<path d="M63.3092 25.9231H61.7674V29.529C61.7674 30.3846 61.2417 30.8267 60.5526 30.8267C59.9452 30.8267 59.367 30.5511 59.367 29.5463V25.9231H57.831V29.9482C57.831 31.3837 58.6837 32.1072 59.951 32.1072C60.9731 32.1072 61.5454 31.6019 61.7381 31.1253H61.8082V32.0153H63.3092V25.9231Z" fill="black"/>
<path d="M64.8393 32.0153H66.4104V28.5414C66.4104 27.7261 66.7608 27.1289 67.7712 27.1289C68.0106 27.1289 68.2559 27.1461 68.3786 27.1806V25.8714C68.2559 25.8485 68.0982 25.8312 67.888 25.8312C67.0411 25.8312 66.5798 26.371 66.4396 26.7614H66.3753V25.9231H64.8393V32.0153Z" fill="black"/>
<path d="M71.8711 32.1244C73.5297 32.1244 74.3357 31.154 74.4817 30.1779H73.0566C72.9282 30.6717 72.496 30.9703 71.8827 30.9703C71.1001 30.9703 70.5687 30.3846 70.5687 29.4601V29.2936H74.5401V28.6965C74.5401 26.9452 73.4947 25.814 71.8068 25.814C70.1774 25.814 69.0619 26.8705 69.0619 28.6563V29.2132C69.0619 31.0794 70.1715 32.1244 71.8711 32.1244ZM70.5687 28.3347V28.3232C70.5687 27.5423 71.0651 26.9394 71.8185 26.9394C72.5661 26.9394 73.0508 27.5366 73.0508 28.3232V28.3347H70.5687Z" fill="black"/>
<path d="M77.9333 25.8427C76.4557 25.8427 75.5621 26.9681 75.5621 28.7079V29.219C75.5621 30.9875 76.4265 32.0899 77.9333 32.0899C78.7801 32.0899 79.4284 31.6995 79.7204 31.0736H79.7847V32.0153H81.2973V23.7641H79.7555V26.8131H79.6971C79.4226 26.2389 78.7743 25.8427 77.9333 25.8427ZM78.4239 27.0543C79.2415 27.0543 79.7671 27.6916 79.7671 28.7596V29.1845C79.7671 30.2927 79.2474 30.8841 78.4356 30.8841C77.6822 30.8841 77.139 30.3214 77.139 29.1788V28.7596C77.139 27.617 77.6822 27.0543 78.4239 27.0543Z" fill="black"/>
<path d="M88.6094 32.0957C90.0461 32.0957 90.9747 31.0507 90.9747 29.2305V28.6965C90.9747 26.8361 90.0227 25.8427 88.6152 25.8427C87.7976 25.8427 87.1084 26.2389 86.8339 26.8074H86.7697V23.7641H85.2278V32.0153H86.7463V31.0736H86.8047C87.1142 31.6995 87.7333 32.0957 88.6094 32.0957ZM88.1246 30.8899C87.2894 30.8899 86.758 30.2985 86.758 29.173V28.7596C86.758 27.6342 87.2953 27.0543 88.1246 27.0543C88.878 27.0543 89.3978 27.6399 89.3978 28.7596V29.1788C89.3978 30.2927 88.878 30.8899 88.1246 30.8899Z" fill="black"/>
<path d="M97.51 25.9231H95.8805L94.5314 30.6487H94.473L93.1531 25.9231H91.4536L93.6028 32.0268L93.5444 32.245C93.4334 32.8077 93.1122 33.0316 92.4114 33.0316C92.2245 33.0316 92.0084 33.0144 91.9091 32.9972V34.0881C92.096 34.1283 92.4289 34.1513 92.6917 34.1513C94.035 34.1513 94.7825 33.6632 95.3199 32.2622L95.4775 31.843C95.4892 31.8086 97.0778 27.3012 97.51 25.9231Z" fill="black"/>
<path d="M115.726 32.0153L116.357 29.9999H119.014L119.639 32.0153H121.315L118.658 24.1776H116.806L114.131 32.0153H115.726ZM117.729 25.6762L118.699 28.8457H116.684L117.659 25.6762H117.729Z" fill="black"/>
<path d="M125.532 32.0957C126.939 32.0957 127.891 31.0564 127.891 29.2247V28.7022C127.891 26.859 126.933 25.8427 125.555 25.8427C124.708 25.8427 124.077 26.2389 123.762 26.8303H123.698V25.9231H122.185V34.0365H123.727V31.1368H123.791C124.095 31.711 124.708 32.0957 125.532 32.0957ZM125.059 30.8899C124.241 30.8899 123.715 30.2353 123.715 29.1558V28.7481C123.715 27.6916 124.235 27.0485 125.041 27.0485C125.835 27.0485 126.32 27.6572 126.32 28.7539V29.1558C126.32 30.2927 125.806 30.8899 125.059 30.8899Z" fill="black"/>
<path d="M132.54 32.0957C133.948 32.0957 134.9 31.0564 134.9 29.2247V28.7022C134.9 26.859 133.942 25.8427 132.563 25.8427C131.717 25.8427 131.086 26.2389 130.77 26.8303H130.706V25.9231H129.194V34.0365H130.735V31.1368H130.8C131.103 31.711 131.717 32.0957 132.54 32.0957ZM132.067 30.8899C131.249 30.8899 130.724 30.2353 130.724 29.1558V28.7481C130.724 27.6916 131.244 27.0485 132.049 27.0485C132.844 27.0485 133.329 27.6572 133.329 28.7539V29.1558C133.329 30.2927 132.815 30.8899 132.067 30.8899Z" fill="black"/>
<path d="M136.237 32.0153H137.779V23.7641H136.237V32.0153Z" fill="black"/>
<path d="M141.908 32.1244C143.567 32.1244 144.373 31.154 144.519 30.1779H143.093C142.965 30.6717 142.533 30.9703 141.92 30.9703C141.137 30.9703 140.606 30.3846 140.606 29.4601V29.2936H144.577V28.6965C144.577 26.9452 143.532 25.814 141.844 25.814C140.214 25.814 139.099 26.8705 139.099 28.6563V29.2132C139.099 31.0794 140.208 32.1244 141.908 32.1244ZM140.606 28.3347V28.3232C140.606 27.5423 141.102 26.9394 141.855 26.9394C142.603 26.9394 143.088 27.5366 143.088 28.3232V28.3347H140.606Z" fill="black"/>
<path d="M58.0095 45.8747V39.3346H60.2756V38.0369H54.1666V39.3346H56.4327V45.8747H58.0095Z" fill="black"/>
<path d="M62.8395 39.6734C61.0114 39.6734 60.0011 40.9079 60.0011 42.5903V43.0382C60.0011 44.8067 61.0114 45.9838 62.8395 45.9838C64.6675 45.9838 65.672 44.8067 65.672 43.0324V42.5846C65.672 40.9022 64.6616 39.6734 62.8395 39.6734ZM62.8395 40.8448C63.7272 40.8448 64.1185 41.5912 64.1185 42.5846V43.0554C64.1185 44.02 63.733 44.8067 62.8395 44.8067C61.9401 44.8067 61.5546 44.0143 61.5546 43.0554V42.5846C61.5546 41.597 61.9517 40.8448 62.8395 40.8448Z" fill="black"/>
<path d="M70.3092 45.9551C71.7167 45.9551 72.6687 44.9158 72.6687 43.0841V42.5616C72.6687 40.7184 71.7109 39.7021 70.3326 39.7021C69.4857 39.7021 68.855 40.0983 68.5396 40.6897H68.4753V39.7825H66.9627V47.8959H68.5045V44.9962H68.5688C68.8725 45.5704 69.4857 45.9551 70.3092 45.9551ZM69.8361 44.7493C69.0185 44.7493 68.4929 44.0947 68.4929 43.0152V42.6075C68.4929 41.551 69.0127 40.9079 69.8186 40.9079C70.6129 40.9079 71.0976 41.5166 71.0976 42.6133V43.0152C71.0976 44.1521 70.5837 44.7493 69.8361 44.7493Z" fill="black"/>
<path d="M77.6855 41.5166C77.6855 40.0237 78.3162 39.1968 79.4317 39.1968C80.4012 39.1968 81.0145 39.8571 81.032 40.7873H82.5505V40.6438C82.5505 39.0073 81.2364 37.8877 79.4201 37.8877C77.2942 37.8877 76.0853 39.2715 76.0853 41.5223V42.418C76.0853 44.6517 77.2942 46.024 79.4201 46.024C81.2306 46.024 82.5505 44.933 82.5505 43.3597V43.2104H81.032C81.0145 44.089 80.4012 44.7148 79.4317 44.7148C78.3162 44.7148 77.6855 43.8995 77.6855 42.4295V41.5166Z" fill="black"/>
<path d="M85.5173 45.9666C86.4284 45.9666 86.954 45.5819 87.1993 45.134H87.2636V45.8747H88.7178V41.7577C88.7178 40.3395 87.6315 39.6849 86.2065 39.6849C84.4194 39.6849 83.7536 40.6266 83.7068 41.6429H85.1436C85.1844 41.1548 85.5465 40.8275 86.1773 40.8275C86.8256 40.8275 87.1993 41.1663 87.1993 41.775V42.3262H85.6867C84.25 42.3262 83.4791 43.0267 83.4791 44.1177C83.4791 45.266 84.3084 45.9666 85.5173 45.9666ZM86.0138 44.8641C85.4998 44.8641 85.0092 44.5885 85.0092 44.02C85.0092 43.555 85.3421 43.2334 86.0196 43.2334H87.1993V43.8765C87.1993 44.4679 86.6737 44.8641 86.0138 44.8641Z" fill="black"/>
<path d="M90.651 39.7825H89.7457V40.9539H90.6218V44.1521C90.6218 45.3981 91.1299 45.9091 92.6717 45.9091C92.9812 45.9091 93.2557 45.8804 93.3725 45.8575V44.7378C93.3025 44.7435 93.174 44.7493 93.0455 44.7493C92.4089 44.7493 92.1461 44.5655 92.1461 43.9569V40.9539H93.3492V39.7825H92.1461V38.324H90.651V39.7825Z" fill="black"/>
<path d="M97.1512 45.9838C98.8099 45.9838 99.6158 45.0134 99.7618 44.0373H98.3368C98.2083 44.5311 97.7761 44.8297 97.1629 44.8297C96.3803 44.8297 95.8488 44.244 95.8488 43.3195V43.153H99.8202V42.5559C99.8202 40.8046 98.7748 39.6734 97.087 39.6734C95.4575 39.6734 94.342 40.7299 94.342 42.5157V43.0726C94.342 44.9388 95.4517 45.9838 97.1512 45.9838ZM95.8488 42.1941V42.1826C95.8488 41.4017 96.3452 40.7988 97.0986 40.7988C97.8462 40.7988 98.3309 41.396 98.3309 42.1826V42.1941H95.8488Z" fill="black"/>
<path d="M103.71 46.9944C103.032 46.9944 102.577 46.6843 102.478 46.2537H100.988C101.076 47.27 101.905 48.1026 103.686 48.1026C105.088 48.1026 106.566 47.4652 106.566 45.8V39.7825H105.047V40.6782H104.983C104.732 40.1213 104.072 39.7021 103.219 39.7021C101.806 39.7021 100.854 40.7012 100.854 42.5501V42.9291C100.854 44.801 101.812 45.7943 103.219 45.7943C104.084 45.7943 104.732 45.3694 104.966 44.8354H105.03V45.7024C105.03 46.5235 104.533 46.9944 103.71 46.9944ZM103.745 40.9079C104.516 40.9079 105.03 41.528 105.03 42.6018V42.9578C105.03 44.043 104.539 44.6574 103.745 44.6574C102.927 44.6574 102.431 44.0488 102.431 42.9578V42.6018C102.431 41.5051 102.927 40.9079 103.745 40.9079Z" fill="black"/>
<path d="M110.695 39.6734C108.867 39.6734 107.856 40.9079 107.856 42.5903V43.0382C107.856 44.8067 108.867 45.9838 110.695 45.9838C112.523 45.9838 113.527 44.8067 113.527 43.0324V42.5846C113.527 40.9022 112.517 39.6734 110.695 39.6734ZM110.695 40.8448C111.583 40.8448 111.974 41.5912 111.974 42.5846V43.0554C111.974 44.02 111.588 44.8067 110.695 44.8067C109.795 44.8067 109.41 44.0143 109.41 43.0554V42.5846C109.41 41.597 109.807 40.8448 110.695 40.8448Z" fill="black"/>
<path d="M114.812 45.8747H116.383V42.4008C116.383 41.5855 116.734 40.9883 117.744 40.9883C117.984 40.9883 118.229 41.0055 118.351 41.04V39.7308C118.229 39.7079 118.071 39.6906 117.861 39.6906C117.014 39.6906 116.553 40.2304 116.413 40.6208H116.348V39.7825H114.812V45.8747Z" fill="black"/>
<path d="M124.986 39.7825H123.357L122.008 44.5081H121.949L120.629 39.7825H118.93L121.079 45.8862L121.02 46.1044C120.91 46.6671 120.588 46.891 119.887 46.891C119.701 46.891 119.485 46.8738 119.385 46.8566V47.9475C119.572 47.9877 119.905 48.0107 120.168 48.0107C121.511 48.0107 122.259 47.5226 122.796 46.1216L122.954 45.7024C122.965 45.668 124.554 41.1606 124.986 39.7825Z" fill="black"/>
<path d="M110.029 27.1028C110.021 25.8301 110.607 24.8709 111.792 24.1636C111.129 23.2306 110.127 22.7174 108.806 22.6185C107.555 22.5215 106.187 23.3351 105.686 23.3351C105.156 23.3351 103.945 22.6521 102.992 22.6521C101.026 22.6819 98.936 24.1935 98.936 27.2689C98.936 28.1777 99.105 29.1164 99.4428 30.083C99.8946 31.3557 101.523 34.474 103.222 34.4236C104.11 34.4031 104.739 33.8041 105.894 33.8041C107.016 33.8041 107.597 34.4236 108.588 34.4236C110.302 34.3994 111.775 31.5647 112.204 30.2883C109.905 29.2227 110.029 27.1681 110.029 27.1028ZM108.034 21.4111C108.996 20.2877 108.909 19.2651 108.88 18.8974C108.03 18.9459 107.047 19.4666 106.487 20.1067C105.87 20.7934 105.507 21.6425 105.585 22.5998C106.504 22.6689 107.343 22.2042 108.034 21.4111Z" fill="black"/>
<path fill-rule="evenodd" clip-rule="evenodd" d="M143.566 7.48923C143.233 8.06227 144.382 9.34212 146.129 10.3491C147.443 11.1097 148.853 11.2752 149.514 11.229C150.582 11.7436 151.573 12.3185 152.492 12.9488L152.592 13.0257C151.992 12.8443 150.523 12.7096 149.03 13.2242C147.125 13.8774 145.755 14.9153 145.97 15.5427C146.184 16.1701 147.906 16.1453 149.811 15.4921C151.584 14.8852 152.765 13.5783 152.867 13.2364L153.988 14.0819C154.188 14.2468 154.38 14.4132 154.569 14.5804L155.101 15.0712C155.633 15.5836 156.133 16.1138 156.598 16.6697C156.066 16.3429 154.678 15.838 153.102 15.9482C151.092 16.0926 149.5 16.7446 149.547 17.4042C149.593 18.0638 151.265 18.4827 153.275 18.3383C155.159 18.2025 156.646 17.2308 156.812 16.9335C157.877 18.2458 158.754 19.6708 159.458 21.1692C158.983 20.7064 157.806 19.9238 156.321 19.6434C154.339 19.2724 152.634 19.4973 152.511 20.1493C152.389 20.8013 153.896 21.6265 155.878 21.9975C157.681 22.3338 159.326 21.8123 159.636 21.5571C160.215 22.8673 160.664 24.2308 160.99 25.6314C161.348 27.3018 161.539 29.0077 161.589 30.7037L161.528 31.7645C161.367 31.151 160.729 29.8388 159.533 28.8345C157.994 27.536 156.395 26.8942 155.968 27.4C155.54 27.9059 156.444 29.3689 157.983 30.6675C159.433 31.887 161.182 32.2275 161.503 32.1263L161.32 35.302C160.971 37.7741 160.347 40.185 159.385 42.4787C159.495 41.9748 159.417 40.3686 158.578 38.8698C157.594 37.1147 156.324 35.9515 155.748 36.2743C155.169 36.5979 155.501 38.2846 156.486 40.0397C157.47 41.7949 159.131 42.7402 159.316 42.6352C159.32 42.6344 159.322 42.6302 159.322 42.6302C159.149 43.0309 158.969 43.4296 158.776 43.8236L157.055 46.7266C157.165 46.0007 157.172 44.8059 156.749 43.6005C156.087 41.7002 155.04 40.3367 154.413 40.5541C153.788 40.7708 153.818 42.4893 154.484 44.3888C155.056 46.0208 156.216 47.1491 156.661 47.389L156.441 47.7596L153.793 51.082C154.043 50.3955 154.289 49.1934 154.09 47.893C153.788 45.9051 153.011 44.3714 152.355 44.4712C151.698 44.5711 151.416 46.2649 151.718 48.2528C151.978 49.9586 152.913 51.2768 153.306 51.6005C152.232 52.6771 151.07 53.6125 149.813 54.4479C150.177 53.8026 150.59 52.7505 150.655 51.543C150.761 49.5339 150.311 47.8759 149.651 47.8418C148.988 47.8084 148.368 49.4068 148.259 51.4167C148.175 53.0285 148.736 54.4261 149.07 54.9264C148.844 55.0654 148.615 55.2017 148.382 55.3386L145.12 56.8704C145.61 56.3184 146.208 55.416 146.531 54.303C147.086 52.369 147.024 50.6537 146.387 50.4692C145.75 50.2848 144.782 51.7062 144.227 53.6402C143.769 55.2261 144.023 56.7512 144.242 57.2795L141.658 58.3685C140.827 58.8111 140.036 59.4598 139.543 60.2708L139.114 61.1919C139.048 61.4789 139.226 61.7649 139.514 61.8344C139.801 61.9005 140.088 61.7231 140.157 61.4354C140.28 60.9362 140.425 60.4905 140.802 60.1081C141.863 59.0379 143.21 58.4707 144.573 57.9222C144.861 58.4028 145.949 59.5173 147.519 60.089C149.413 60.7808 151.131 60.8369 151.358 60.2136C151.586 59.5937 150.235 58.5279 148.342 57.8397C147.397 57.4952 146.453 57.4123 145.742 57.4438C146.059 57.3071 146.374 57.1635 146.68 57.0075C147.642 56.515 148.574 55.9817 149.474 55.4007C149.672 55.7297 151.088 56.7416 152.925 56.9651C154.924 57.2123 156.613 56.878 156.695 56.2238C156.777 55.566 155.221 54.835 153.218 54.5885C152.012 54.4379 150.898 54.6643 150.2 54.9113C151.462 54.0311 152.645 53.0403 153.723 51.9266C154.014 52.2139 155.589 52.8972 157.41 52.7531C159.419 52.5906 161.004 51.9254 160.95 51.2638C160.897 50.6057 159.224 50.2014 157.215 50.364C155.957 50.4645 154.881 50.9375 154.255 51.3329L156.814 48.0186C156.905 47.8828 156.999 47.7427 157.09 47.6068C157.314 47.8322 159.059 48.2718 160.905 47.7729C162.852 47.2455 164.285 46.2996 164.112 45.6598C163.938 45.0199 162.221 44.931 160.275 45.4584C158.994 45.8077 157.984 46.5213 157.459 47.0298C158.307 45.6811 159.071 44.263 159.689 42.7958C160.121 42.955 161.789 43.018 163.398 42.2604C165.222 41.4024 166.471 40.223 166.186 39.6251C165.905 39.0264 164.197 39.2374 162.373 40.0955C161.304 40.5998 160.499 41.3499 160.035 41.9253C160.038 41.9211 160.037 41.9176 160.04 41.9134L161.212 37.5338C161.437 37.6823 163.275 37.5199 164.867 36.3947C166.514 35.2326 167.537 33.8537 167.155 33.3129C166.773 32.772 165.128 33.2753 163.482 34.4375C162.247 35.3082 161.51 36.5097 161.27 37.1283L161.84 32.9825C161.855 32.6955 161.862 32.4065 161.866 32.1182C162.151 32.2067 163.898 31.7034 165.239 30.3226C166.643 28.8809 167.394 27.3345 166.92 26.8751C166.446 26.4122 164.922 27.2099 163.519 28.6551C162.539 29.6607 162.033 30.871 161.87 31.557C161.859 29.9074 161.691 28.2549 161.376 26.6335C161.383 26.6502 161.393 26.6626 161.402 26.6681C161.583 26.7823 163.293 25.9341 164.372 24.2377C165.452 22.5412 165.875 20.8755 165.318 20.5212C164.758 20.1676 163.427 21.2552 162.347 22.9516C161.488 24.2991 161.284 25.7798 161.327 26.3892C160.99 24.7291 160.502 23.0974 159.868 21.5332C158.86 19.0442 157.216 16.7636 155.19 14.9974L155.004 14.8588C154.306 14.1853 153.539 13.4972 152.902 13.0287C152.262 12.5575 151.603 12.1884 151.062 11.8889L151.027 11.8635L149.9 11.1613C150.005 10.9715 149.084 9.30838 147.337 8.30138C145.591 7.29439 143.908 6.94328 143.575 7.51632L143.566 7.48923ZM151.11 5.88929C150.469 6.05873 150.373 7.77465 150.896 9.71924C151.418 11.6638 152.791 12.9869 152.998 12.9319C153.205 12.8769 153.735 11.0465 153.213 9.10192C152.69 7.15733 151.748 5.7206 151.11 5.88929ZM156.996 9.39121C156.333 9.39412 155.801 11.0249 155.805 13.0362C155.81 15.0474 156.801 16.6775 157.015 16.6755C157.23 16.6734 158.21 15.0418 158.206 13.0305C158.201 11.0193 157.659 9.3883 156.996 9.39121ZM161.757 14.2935C161.116 14.128 160.183 15.5713 159.677 17.5165C159.169 19.4624 159.713 21.2895 159.918 21.3441C160.127 21.398 161.492 20.0663 161.997 18.1211C162.506 16.1752 162.397 14.4591 161.757 14.2935ZM154.705 23.2443C154.389 23.8248 155.571 25.0756 157.344 26.0334C159.116 26.9912 161.022 26.9053 161.124 26.7163C161.226 26.5273 160.258 24.885 158.485 23.9272C156.713 22.9694 155.022 22.6637 154.705 23.2443ZM156.295 31.8204C155.783 32.2387 156.401 33.8429 157.678 35.401C158.953 36.9598 160.752 37.599 160.916 37.4657C161.081 37.3324 160.811 35.4432 159.533 33.8851C158.259 32.3263 156.807 31.4021 156.295 31.8204Z" fill="black"/>
<path fill-rule="evenodd" clip-rule="evenodd" d="M35.6552 7.48923C35.9879 8.06227 34.839 9.34212 33.0924 10.3491C31.7777 11.1097 30.3682 11.2752 29.7074 11.229C28.6386 11.7436 27.648 12.3185 26.7293 12.9488L26.629 13.0257C27.2292 12.8443 28.6977 12.7096 30.1911 13.2242C32.0958 13.8774 33.4661 14.9153 33.2515 15.5427C33.0368 16.1701 31.3146 16.1453 29.4099 15.4921C27.6374 14.8852 26.4559 13.5783 26.3542 13.2364L25.2327 14.0819C25.0334 14.2468 24.841 14.4132 24.6521 14.5804L24.1205 15.0712C23.5879 15.5836 23.0879 16.1138 22.6226 16.6697C23.1555 16.3429 24.543 15.838 26.1194 15.9482C28.1295 16.0926 29.721 16.7446 29.6744 17.4042C29.6278 18.0638 27.9562 18.4827 25.9461 18.3383C24.0618 18.2025 22.5752 17.2308 22.4093 16.9335C21.3445 18.2458 20.4669 19.6708 19.7631 21.1692C20.2377 20.7064 21.415 19.9238 22.9001 19.6434C24.8822 19.2724 26.5871 19.4973 26.7098 20.1493C26.8325 20.8013 25.3253 21.6265 23.3433 21.9975C21.54 22.3338 19.895 21.8123 19.5852 21.5571C19.0056 22.8673 18.5567 24.2308 18.231 25.6314C17.8731 27.3018 17.6825 29.0077 17.6325 30.7037L17.6931 31.7645C17.8537 31.151 18.4921 29.8388 19.6877 28.8345C21.2271 27.536 22.8261 26.8942 23.2535 27.4C23.6809 27.9059 22.7769 29.3689 21.2376 30.6675C19.7881 31.887 18.0386 32.2275 17.7176 32.1263L17.9009 35.302C18.2495 37.7741 18.8737 40.185 19.8364 42.4787C19.7257 41.9748 19.8038 40.3686 20.6426 38.8698C21.6273 37.1147 22.8971 35.9515 23.473 36.2743C24.0524 36.5979 23.7202 38.2846 22.7354 40.0397C21.7506 41.7949 20.0902 42.7402 19.9049 42.6352C19.9014 42.6344 19.8987 42.6302 19.8987 42.6302C20.0716 43.0309 20.2522 43.4296 20.4448 43.8236L22.1663 46.7266C22.0557 46.0007 22.0494 44.8059 22.4717 43.6005C23.134 41.7002 24.1806 40.3367 24.8083 40.5541C25.4325 40.7708 25.4032 42.4893 24.7374 44.3888C24.1654 46.0208 23.0051 47.1491 22.5601 47.389L22.7795 47.7596L25.428 51.082C25.1778 50.3955 24.9324 49.1934 25.1309 47.893C25.433 45.9051 26.2099 44.3714 26.8665 44.4712C27.523 44.5711 27.8051 46.2649 27.503 48.2528C27.2432 49.9586 26.3083 51.2768 25.9146 51.6005C26.9887 52.6771 28.1513 53.6125 29.4083 54.4479C29.0437 53.8026 28.6313 52.7505 28.5657 51.543C28.4604 49.5339 28.9105 47.8759 29.5702 47.8418C30.2334 47.8084 30.8531 49.4068 30.9618 51.4167C31.0465 53.0285 30.4845 54.4261 30.1514 54.9264C30.3767 55.0654 30.6063 55.2017 30.8394 55.3386L34.1011 56.8704C33.6108 56.3184 33.0132 55.416 32.6905 54.303C32.1354 52.369 32.1968 50.6537 32.8341 50.4692C33.4713 50.2848 34.4387 51.7062 34.9938 53.6402C35.4521 55.2261 35.1982 56.7512 34.9793 57.2795L37.5633 58.3685C38.3942 58.8111 39.1846 59.4598 39.6778 60.2708L40.1073 61.1919C40.1734 61.4789 39.9955 61.7649 39.7072 61.8344C39.4197 61.9005 39.1333 61.7231 39.0638 61.4354C38.9411 60.9362 38.7961 60.4905 38.4188 60.1081C37.3579 59.0379 36.0106 58.4707 34.6484 57.9222C34.3596 58.4028 33.2715 59.5173 31.7021 60.089C29.808 60.7808 28.0903 60.8369 27.863 60.2136C27.635 59.5937 28.986 58.5279 30.8793 57.8397C31.8242 57.4952 32.7677 57.4123 33.4789 57.4438C33.162 57.3071 32.8465 57.1635 32.541 57.0075C31.5786 56.515 30.6469 55.9817 29.7472 55.4007C29.5492 55.7297 28.1332 56.7416 26.2958 56.9651C24.2965 57.2123 22.6078 56.878 22.5257 56.2238C22.4443 55.566 24.0005 54.835 26.0032 54.5885C27.2091 54.4379 28.3232 54.6643 29.0211 54.9113C27.7591 54.0311 26.5755 53.0403 25.4985 51.9266C25.2073 52.2139 23.6321 52.8972 21.8115 52.7531C19.8017 52.5906 18.2166 51.9254 18.2709 51.2638C18.3245 50.6057 19.9965 50.2014 22.0064 50.364C23.2641 50.4645 24.34 50.9375 24.966 51.3329L22.4069 48.0186C22.3158 47.8828 22.2219 47.7427 22.1307 47.6068C21.9075 47.8322 20.1622 48.2718 18.3156 47.7729C16.3693 47.2455 14.9356 46.2996 15.1091 45.6598C15.2827 45.0199 17.0002 44.931 18.9464 45.4584C20.2274 45.8077 21.2371 46.5213 21.7623 47.0298C20.9142 45.6811 20.1502 44.263 19.5315 42.7958C19.1002 42.955 17.4319 43.018 15.823 42.2604C13.9986 41.4024 12.7497 40.223 13.0346 39.6251C13.3159 39.0264 15.0238 39.2374 16.8482 40.0955C17.9174 40.5998 18.7225 41.3499 19.186 41.9253C19.1832 41.9211 19.184 41.9176 19.1812 41.9134L18.0094 37.5338C17.7844 37.6823 15.9459 37.5199 14.3537 36.3947C12.7075 35.2326 11.6836 33.8537 12.0656 33.3129C12.4475 32.772 14.0928 33.2753 15.739 34.4375C16.9738 35.3082 17.7114 36.5097 17.9506 37.1283L17.3811 32.9825C17.366 32.6955 17.3587 32.4065 17.3549 32.1182C17.0699 32.2067 15.3226 31.7034 13.982 30.3226C12.5779 28.8809 11.8268 27.3345 12.3007 26.8751C12.7753 26.4122 14.2991 27.2099 15.7024 28.6551C16.6824 29.6607 17.1884 30.871 17.3512 31.557C17.3621 29.9074 17.5304 28.2549 17.845 26.6335C17.8378 26.6502 17.8278 26.6626 17.8194 26.6681C17.6382 26.7823 15.9283 25.9341 14.8486 24.2377C13.7688 22.5412 13.3458 20.8755 13.9028 20.5212C14.4633 20.1676 15.7939 21.2552 16.8736 22.9516C17.733 24.2991 17.9368 25.7798 17.8937 26.3892C18.2312 24.7291 18.7194 23.0974 19.3535 21.5332C20.3606 19.0442 22.0047 16.7636 24.0306 14.9974L24.217 14.8588C24.9153 14.1853 25.6824 13.4972 26.3186 13.0287C26.959 12.5575 27.6176 12.1884 28.1592 11.8889L28.1938 11.8635L29.321 11.1613C29.2159 10.9715 30.1372 9.30838 31.8838 8.30138C33.6304 7.29439 35.3129 6.94328 35.6457 7.51632L35.6552 7.48923ZM28.1109 5.88929C28.7525 6.05873 28.8477 7.77465 28.3253 9.71924C27.8029 11.6638 26.4296 12.9869 26.2227 12.9319C26.0158 12.8769 25.4859 11.0465 26.0083 9.10192C26.5307 7.15733 27.4728 5.7206 28.1109 5.88929ZM22.2251 9.39121C22.8878 9.39412 23.4203 11.0249 23.4158 13.0362C23.4112 15.0474 22.4204 16.6775 22.2058 16.6755C21.9912 16.6734 21.0106 15.0418 21.0151 13.0305C21.0197 11.0193 21.5624 9.3883 22.2251 9.39121ZM17.4643 14.2935C18.1048 14.128 19.0383 15.5713 19.5436 17.5165C20.0523 19.4624 19.5077 21.2895 19.3029 21.3441C19.0945 21.398 17.7288 20.0663 17.2235 18.1211C16.7148 16.1752 16.8238 14.4591 17.4643 14.2935ZM24.5158 23.2443C24.8324 23.8248 23.6496 25.0756 21.8771 26.0334C20.1046 26.9912 18.1986 26.9053 18.097 26.7163C17.9953 26.5273 18.9632 24.885 20.7357 23.9272C22.5082 22.9694 24.1992 22.6637 24.5158 23.2443ZM22.9258 31.8204C23.4376 32.2387 22.8205 33.8429 21.5426 35.401C20.2682 36.9598 18.4693 37.599 18.3047 37.4657C18.1401 37.3324 18.4101 35.4432 19.6879 33.8851C20.9623 32.3263 22.4141 31.4021 22.9258 31.8204Z" fill="black"/>
</svg>
