<svg width="29" height="22" viewBox="0 0 29 22" fill="none" xmlns="http://www.w3.org/2000/svg">
<path d="M0 22V0H29V22H0ZM2.63636 19.4118H26.3636V2.58824H2.63636V19.4118ZM10.5455 7.76471H13.1818V5.17647H10.5455V7.76471ZM5.27273 7.76471H7.90909V5.17647H5.27273V7.76471ZM9.22727 16.8235H19.7727V15.5294H9.22727V16.8235ZM15.8182 7.76471H18.4545V5.17647H15.8182V7.76471ZM10.5455 12.9412H13.1818V10.3529H10.5455V12.9412ZM5.27273 12.9412H7.90909V10.3529H5.27273V12.9412ZM15.8182 12.9412H18.4545V10.3529H15.8182V12.9412ZM21.0909 7.76471H23.7273V5.17647H21.0909V7.76471ZM21.0909 12.9412H23.7273V10.3529H21.0909V12.9412Z" fill="black"/>
</svg>
