<svg width="36" height="36" viewBox="0 0 36 36" fill="none" xmlns="http://www.w3.org/2000/svg">
<path fill-rule="evenodd" clip-rule="evenodd" d="M25.3429 9.78643C24.7577 9.20002 23.8079 9.19901 23.2215 9.78417L17.5586 15.435L11.9078 9.77217C11.3227 9.18576 10.3729 9.18475 9.78651 9.76991C9.2001 10.3551 9.19909 11.3048 9.78425 11.8912L15.435 17.5541L9.7722 23.2049C9.18579 23.79 9.18478 24.7398 9.76994 25.3262C10.3551 25.9126 11.3048 25.9136 11.8913 25.3285L17.5541 19.6777L23.205 25.3406C23.7901 25.927 24.7399 25.928 25.3263 25.3428C25.9127 24.7577 25.9137 23.8079 25.3285 23.2215L19.6777 17.5586L25.3406 11.9077C25.927 11.3226 25.928 10.3728 25.3429 9.78643Z" fill="black"/>
</svg>
