<svg width="290" height="290" viewBox="0 0 290 290" fill="none" xmlns="http://www.w3.org/2000/svg">
<path d="M144.585 255C167.686 264.383 188.153 255.746 197.763 232.086L227.286 159.4C243.14 120.368 227.83 83.638 189.286 67.9824C151.375 52.5838 115.613 68.2003 99.862 106.979C95.5413 117.616 94.222 126.652 94.6889 134.851C94.7096 135.215 94.7338 135.577 94.7614 135.937C94.811 136.583 95.3061 137.102 95.9447 137.215C99.1275 137.777 102.292 138.679 105.397 139.94C106.327 140.318 107.238 140.723 108.13 141.153C109.232 141.684 110.542 140.721 110.355 139.512C110.307 139.201 110.262 138.89 110.22 138.578C109.17 130.815 109.92 122.515 113.912 112.686C126.221 82.3843 154.089 70.0469 183.582 82.0264C213.771 94.2887 225.661 122.923 213.173 153.667L183.88 225.784C177.713 240.967 164.733 246.602 149.734 240.509C138.025 235.753 132.185 226.896 130.768 213.866V213.866C130.577 212.305 128.361 211.917 127.552 213.265C124.941 217.616 121.781 221.48 118.212 224.793C117.734 225.236 117.535 225.91 117.726 226.532C121.754 239.624 130.695 249.358 144.585 255Z" fill="black"/>
<path d="M159.43 205.02C168.67 208.773 177.172 205.814 180.461 197.717C183.708 189.723 180.009 184.823 176.73 180.478C174.118 177.017 171.772 173.909 173.412 169.87C174.664 166.789 178.255 165.038 182.592 162.924C189.206 159.701 197.555 155.631 201.993 144.704C210.139 124.651 200.922 103.957 178.518 94.8565C155.797 85.6276 134.492 94.514 125.319 117.098C123.931 120.514 125.648 124.454 129.003 125.817C132.42 127.205 136.336 125.553 137.723 122.137C143.942 106.827 158.039 100.983 173.481 107.256C188.481 113.348 194.83 126.761 189.589 139.666C186.368 147.594 179.351 150.408 171.76 153.452C162.816 157.039 153.075 160.946 147.807 173.915C142.616 186.693 147.114 199.943 159.43 205.02Z" fill="black"/>
<path fill-rule="evenodd" clip-rule="evenodd" d="M87.7688 226.612C65.0862 226.612 46.6984 208.224 46.6984 185.541C46.6984 162.859 65.0862 144.471 87.7688 144.471C110.451 144.471 128.839 162.859 128.839 185.541C128.839 208.224 110.451 226.612 87.7688 226.612ZM100.489 190.536L112.318 190.536C114.146 190.536 115.583 189.119 115.583 187.332C115.583 185.525 114.146 184.067 112.318 184.067L102.748 184.067L97.3676 158.972C96.6488 155.686 91.8639 155.769 91.3505 159.013L85.5387 194.849L80.3841 171.663C79.6859 168.419 74.8598 168.378 74.141 171.561L71.3892 184.067L62.8669 184.067C61.0185 184.067 59.6015 185.464 59.6015 187.332C59.6015 189.119 61.0597 190.536 62.8669 190.536L73.3196 190.536C75.2295 190.536 76.4206 189.55 76.7903 187.661L77.1187 185.957L82.4583 211.606C83.1154 214.913 88.1879 214.913 88.7424 211.586L94.5336 176.325L97.039 187.969C97.4292 189.633 98.6614 190.536 100.489 190.536Z" fill="black"/>
<path d="M128.336 55.4008C128.45 52.0975 125.43 49.554 122.309 50.6408C118.259 52.0509 114.401 53.9864 110.837 56.4045C107.267 58.8136 104.035 61.6748 101.22 64.9099C99.0501 67.4036 100.288 71.153 103.396 72.2772V72.2772C105.503 73.0391 107.836 72.3145 109.349 70.6621C111.444 68.3745 113.803 66.3382 116.38 64.5976C118.955 62.8508 121.723 61.4166 124.626 60.322C126.721 59.5323 128.259 57.6378 128.336 55.4008V55.4008ZM129.038 34.6767C129.143 31.5708 126.423 29.106 123.39 29.786C114.954 31.6777 106.932 35.143 99.7495 40.0183C92.349 45.0257 86.2244 51.2141 81.4577 58.1578C79.699 60.7199 80.9758 64.161 83.8979 65.2186V65.2186C86.1487 66.0333 88.6429 65.1312 90.0216 63.1745C94.154 57.3096 99.3263 52.2361 105.293 48.2114C111.249 44.1698 117.882 41.2556 124.863 39.6004C127.192 39.0482 128.957 37.0687 129.038 34.6767V34.6767Z" fill="black"/>
</svg>
