<svg width="30" height="30" viewBox="0 0 30 30" fill="none" xmlns="http://www.w3.org/2000/svg">
<path d="M28.8133 11.5569L19.8871 10.2596L15.8969 2.17016C15.7879 1.94867 15.6086 1.76938 15.3871 1.66039C14.8317 1.38617 14.1567 1.61469 13.8789 2.17016L9.8887 10.2596L0.962524 11.5569C0.71643 11.592 0.49143 11.708 0.319164 11.8838C0.110904 12.0979 -0.00385632 12.3859 9.89505e-05 12.6845C0.00405422 12.9831 0.126402 13.2679 0.340258 13.4764L6.79846 19.7729L5.27268 28.6639C5.2369 28.8707 5.25979 29.0834 5.33875 29.2779C5.4177 29.4724 5.54958 29.6409 5.71941 29.7642C5.88924 29.8876 6.09023 29.9609 6.29959 29.9758C6.50896 29.9907 6.71832 29.9467 6.90393 29.8487L14.8879 25.651L22.8719 29.8487C23.0899 29.9647 23.343 30.0034 23.5856 29.9612C24.1973 29.8557 24.6086 29.2756 24.5032 28.6639L22.9774 19.7729L29.4356 13.4764C29.6114 13.3041 29.7274 13.0791 29.7625 12.833C29.8575 12.2178 29.4285 11.6483 28.8133 11.5569V11.5569Z" fill="black"/>
</svg>
