<?xml version="1.0" encoding="UTF-8"?>
<!--Generator: Apple Native CoreSVG 149-->
<!DOCTYPE svg
PUBLIC "-//W3C//DTD SVG 1.1//EN"
       "http://www.w3.org/Graphics/SVG/1.1/DTD/svg11.dtd">
<svg version="1.1" xmlns="http://www.w3.org/2000/svg" xmlns:xlink="http://www.w3.org/1999/xlink" width="3300" height="2200">
 <!--glyph: "uni100A93.medium", point size: 100.000000, font version: "Version 16.0d18e1", template writer version: "8"-->
 <g id="Notes">
  <rect height="2200" id="artboard" style="fill:white;opacity:1" width="3300" x="0" y="0"/>
  <line id="" style="fill:none;stroke:black;opacity:1;stroke-width:0.5;" x1="263" x2="3036" y1="292" y2="292"/>
  <text style="stroke:none;fill:black;font-family:-apple-system,&quot;SF Pro Display&quot;,&quot;SF Pro Text&quot;,Helvetica,sans-serif;font-weight:bold;" transform="matrix(1 0 0 1 263 322)">Weight/Scale Variations</text>
  <text style="stroke:none;fill:black;font-family:-apple-system,&quot;SF Pro Display&quot;,&quot;SF Pro Text&quot;,Helvetica,sans-serif;text-anchor:middle;" transform="matrix(1 0 0 1 559.711 322)">Ultralight</text>
  <text style="stroke:none;fill:black;font-family:-apple-system,&quot;SF Pro Display&quot;,&quot;SF Pro Text&quot;,Helvetica,sans-serif;text-anchor:middle;" transform="matrix(1 0 0 1 856.422 322)">Thin</text>
  <text style="stroke:none;fill:black;font-family:-apple-system,&quot;SF Pro Display&quot;,&quot;SF Pro Text&quot;,Helvetica,sans-serif;text-anchor:middle;" transform="matrix(1 0 0 1 1153.13 322)">Light</text>
  <text style="stroke:none;fill:black;font-family:-apple-system,&quot;SF Pro Display&quot;,&quot;SF Pro Text&quot;,Helvetica,sans-serif;text-anchor:middle;" transform="matrix(1 0 0 1 1449.84 322)">Regular</text>
  <text style="stroke:none;fill:black;font-family:-apple-system,&quot;SF Pro Display&quot;,&quot;SF Pro Text&quot;,Helvetica,sans-serif;text-anchor:middle;" transform="matrix(1 0 0 1 1746.56 322)">Medium</text>
  <text style="stroke:none;fill:black;font-family:-apple-system,&quot;SF Pro Display&quot;,&quot;SF Pro Text&quot;,Helvetica,sans-serif;text-anchor:middle;" transform="matrix(1 0 0 1 2043.27 322)">Semibold</text>
  <text style="stroke:none;fill:black;font-family:-apple-system,&quot;SF Pro Display&quot;,&quot;SF Pro Text&quot;,Helvetica,sans-serif;text-anchor:middle;" transform="matrix(1 0 0 1 2339.98 322)">Bold</text>
  <text style="stroke:none;fill:black;font-family:-apple-system,&quot;SF Pro Display&quot;,&quot;SF Pro Text&quot;,Helvetica,sans-serif;text-anchor:middle;" transform="matrix(1 0 0 1 2636.69 322)">Heavy</text>
  <text style="stroke:none;fill:black;font-family:-apple-system,&quot;SF Pro Display&quot;,&quot;SF Pro Text&quot;,Helvetica,sans-serif;text-anchor:middle;" transform="matrix(1 0 0 1 2933.4 322)">Black</text>
  <line id="" style="fill:none;stroke:black;opacity:1;stroke-width:0.5;" x1="263" x2="3036" y1="1903" y2="1903"/>
  <g id="" transform="matrix(1 0 0 1 263 1933)">
   <path d="M9.24805 0.830078C13.5547 0.830078 17.1387-2.74414 17.1387-7.05078C17.1387-11.3574 13.5449-14.9316 9.23828-14.9316C4.94141-14.9316 1.36719-11.3574 1.36719-7.05078C1.36719-2.74414 4.95117 0.830078 9.24805 0.830078ZM9.24805-0.654297C5.70312-0.654297 2.87109-3.49609 2.87109-7.05078C2.87109-10.6055 5.69336-13.4473 9.23828-13.4473C12.793-13.4473 15.6348-10.6055 15.6445-7.05078C15.6543-3.49609 12.8027-0.654297 9.24805-0.654297ZM6.39648-6.31836L8.50586-6.31836L8.50586-4.19922C8.50586-3.75977 8.79883-3.45703 9.22852-3.45703C9.67773-3.45703 9.9707-3.75977 9.9707-4.19922L9.9707-6.31836L12.0996-6.31836C12.5391-6.31836 12.8418-6.61133 12.8418-7.04102C12.8418-7.48047 12.5391-7.7832 12.0996-7.7832L9.9707-7.7832L9.9707-9.89258C9.9707-10.3418 9.67773-10.6445 9.22852-10.6445C8.79883-10.6445 8.50586-10.3418 8.50586-9.89258L8.50586-7.7832L6.39648-7.7832C5.94727-7.7832 5.64453-7.48047 5.64453-7.04102C5.64453-6.61133 5.94727-6.31836 6.39648-6.31836Z"/>
  </g>
  <g id="" transform="matrix(1 0 0 1 281.506 1933)">
   <path d="M11.709 2.91016C17.1582 2.91016 21.6699-1.61133 21.6699-7.05078C21.6699-12.5 17.1484-17.0117 11.6992-17.0117C6.25977-17.0117 1.74805-12.5 1.74805-7.05078C1.74805-1.61133 6.26953 2.91016 11.709 2.91016ZM11.709 1.25C7.09961 1.25 3.41797-2.44141 3.41797-7.05078C3.41797-11.6602 7.08984-15.3516 11.6992-15.3516C16.3086-15.3516 20-11.6602 20.0098-7.05078C20.0195-2.44141 16.3184 1.25 11.709 1.25ZM7.98828-6.23047L10.8789-6.23047L10.8789-3.32031C10.8789-2.83203 11.2109-2.5 11.6895-2.5C12.1777-2.5 12.5195-2.83203 12.5195-3.32031L12.5195-6.23047L15.4297-6.23047C15.918-6.23047 16.25-6.5625 16.25-7.04102C16.25-7.5293 15.918-7.87109 15.4297-7.87109L12.5195-7.87109L12.5195-10.7617C12.5195-11.2695 12.1777-11.6016 11.6895-11.6016C11.2109-11.6016 10.8789-11.2598 10.8789-10.7617L10.8789-7.87109L7.98828-7.87109C7.48047-7.87109 7.14844-7.5293 7.14844-7.04102C7.14844-6.5625 7.49023-6.23047 7.98828-6.23047Z"/>
  </g>
  <g id="" transform="matrix(1 0 0 1 304.924 1933)">
   <path d="M14.9707 5.66406C21.9336 5.66406 27.6953-0.0976562 27.6953-7.05078C27.6953-14.0137 21.9238-19.7754 14.9609-19.7754C8.00781-19.7754 2.25586-14.0137 2.25586-7.05078C2.25586-0.0976562 8.01758 5.66406 14.9707 5.66406ZM14.9707 3.84766C8.93555 3.84766 4.08203-1.01562 4.08203-7.05078C4.08203-13.0957 8.92578-17.9492 14.9609-17.9492C21.0059-17.9492 25.8594-13.0957 25.8691-7.05078C25.8789-1.01562 21.0156 3.84766 14.9707 3.84766ZM10.0586-6.14258L14.0625-6.14258L14.0625-2.12891C14.0625-1.5918 14.4336-1.2207 14.9512-1.2207C15.4883-1.2207 15.8594-1.5918 15.8594-2.12891L15.8594-6.14258L19.8828-6.14258C20.4102-6.14258 20.791-6.51367 20.791-7.03125C20.791-7.56836 20.4199-7.94922 19.8828-7.94922L15.8594-7.94922L15.8594-11.9531C15.8594-12.5098 15.4883-12.8809 14.9512-12.8809C14.4336-12.8809 14.0625-12.5 14.0625-11.9531L14.0625-7.94922L10.0586-7.94922C9.50195-7.94922 9.13086-7.56836 9.13086-7.03125C9.13086-6.51367 9.51172-6.14258 10.0586-6.14258Z"/>
  </g>
  <text style="stroke:none;fill:black;font-family:-apple-system,&quot;SF Pro Display&quot;,&quot;SF Pro Text&quot;,Helvetica,sans-serif;font-weight:bold;" transform="matrix(1 0 0 1 263 1953)">Design Variations</text>
  <text style="stroke:none;fill:black;font-family:-apple-system,&quot;SF Pro Display&quot;,&quot;SF Pro Text&quot;,Helvetica,sans-serif;" transform="matrix(1 0 0 1 263 1971)">Symbols are supported in up to nine weights and three scales.</text>
  <text style="stroke:none;fill:black;font-family:-apple-system,&quot;SF Pro Display&quot;,&quot;SF Pro Text&quot;,Helvetica,sans-serif;" transform="matrix(1 0 0 1 263 1989)">For optimal layout with text and other symbols, vertically align</text>
  <text style="stroke:none;fill:black;font-family:-apple-system,&quot;SF Pro Display&quot;,&quot;SF Pro Text&quot;,Helvetica,sans-serif;" transform="matrix(1 0 0 1 263 2007)">symbols with the adjacent text.</text>
  <line id="" style="fill:none;stroke:#00AEEF;stroke-width:0.5;opacity:1.0;" x1="776" x2="776" y1="1919" y2="1933"/>
  <g id="" transform="matrix(1 0 0 1 776 1933)">
   <path d="M3.31055 0.126953C3.82812 0.126953 4.08203-0.0683594 4.26758-0.605469L5.52734-4.0625L11.2891-4.0625L12.5488-0.605469C12.7344-0.0683594 12.9883 0.126953 13.4961 0.126953C14.0137 0.126953 14.3457-0.185547 14.3457-0.673828C14.3457-0.839844 14.3164-0.986328 14.2383-1.20117L9.6582-13.3887C9.43359-13.9941 9.0332-14.2871 8.4082-14.2871C7.80273-14.2871 7.39258-13.9941 7.17773-13.3984L2.59766-1.19141C2.51953-0.976562 2.49023-0.830078 2.49023-0.664062C2.49023-0.175781 2.80273 0.126953 3.31055 0.126953ZM6.00586-5.53711L8.37891-12.1094L8.42773-12.1094L10.8008-5.53711Z"/>
  </g>
  <line id="" style="fill:none;stroke:#00AEEF;stroke-width:0.5;opacity:1.0;" x1="792.836" x2="792.836" y1="1919" y2="1933"/>
  <text style="stroke:none;fill:black;font-family:-apple-system,&quot;SF Pro Display&quot;,&quot;SF Pro Text&quot;,Helvetica,sans-serif;font-weight:bold;" transform="matrix(1 0 0 1 776 1953)">Margins</text>
  <text style="stroke:none;fill:black;font-family:-apple-system,&quot;SF Pro Display&quot;,&quot;SF Pro Text&quot;,Helvetica,sans-serif;" transform="matrix(1 0 0 1 776 1971)">Leading and trailing margins on the left and right side of each symbol</text>
  <text style="stroke:none;fill:black;font-family:-apple-system,&quot;SF Pro Display&quot;,&quot;SF Pro Text&quot;,Helvetica,sans-serif;" transform="matrix(1 0 0 1 776 1989)">can be adjusted by modifying the x-location of the margin guidelines.</text>
  <text style="stroke:none;fill:black;font-family:-apple-system,&quot;SF Pro Display&quot;,&quot;SF Pro Text&quot;,Helvetica,sans-serif;" transform="matrix(1 0 0 1 776 2007)">Modifications are automatically applied proportionally to all</text>
  <text style="stroke:none;fill:black;font-family:-apple-system,&quot;SF Pro Display&quot;,&quot;SF Pro Text&quot;,Helvetica,sans-serif;" transform="matrix(1 0 0 1 776 2025)">scales and weights.</text>
  <g id="" transform="matrix(1 0 0 1 1289 1933)">
   <path d="M2.8418 1.86523L4.54102 3.57422C5.40039 4.44336 6.38672 4.38477 7.31445 3.35938L17.4902-7.85156C17.7539-7.76367 18.0273-7.7832 18.3398-7.8418L19.4043-8.03711L20.0684-7.36328L20.0293-6.80664C19.9902-6.30859 20.1172-5.92773 20.6055-5.44922L21.3672-4.70703C21.8457-4.22852 22.4609-4.19922 22.9297-4.66797L25.8398-7.58789C26.3086-8.05664 26.2891-8.65234 25.8105-9.13086L25.0391-9.89258C24.5605-10.3711 24.1895-10.5273 23.7109-10.4883L23.1348-10.4395L22.4902-11.0742L22.7344-12.1973C22.8613-12.7637 22.7051-13.2031 22.1191-13.7891L19.9219-15.9766C16.582-19.2969 12.1484-19.2188 9.25781-16.3281C8.83789-15.918 8.80859-15.3418 9.04297-14.9512C9.27734-14.5898 9.73633-14.3555 10.3809-14.5215C11.8457-14.8633 13.3691-14.9219 14.7949-13.9844L14.209-12.5293C14.0137-12.0508 13.9844-11.6504 14.1113-11.2891L3.04688-0.898438C2.06055 0.0195312 1.98242 0.996094 2.8418 1.86523ZM10.752-15.957C13.1836-17.7344 16.4746-17.4316 18.7012-15.2051L21.1328-12.793C21.3672-12.5586 21.4062-12.373 21.3379-12.0312L21.0156-10.5469L22.5195-9.0625L23.5059-9.12109C23.7598-9.13086 23.8379-9.11133 24.0332-8.91602L24.6094-8.33984L22.168-5.89844L21.5918-6.47461C21.3965-6.66992 21.3672-6.74805 21.377-7.01172L21.4453-7.98828L19.9512-9.47266L18.4277-9.21875C18.1055-9.15039 17.959-9.17969 17.7148-9.41406L15.7129-11.416C15.459-11.6504 15.4297-11.8164 15.5859-12.1875L16.4648-14.2773C14.9023-15.7324 12.8711-16.3574 10.8398-15.7617C10.6836-15.7227 10.625-15.8496 10.752-15.957ZM5.27344 2.30469L4.10156 1.14258C3.63281 0.683594 3.74023 0.341797 4.14062-0.0195312L14.9512-10.1953L16.416-8.71094L6.42578 2.27539C6.07422 2.67578 5.74219 2.77344 5.27344 2.30469Z"/>
  </g>
  <text style="stroke:none;fill:black;font-family:-apple-system,&quot;SF Pro Display&quot;,&quot;SF Pro Text&quot;,Helvetica,sans-serif;font-weight:bold;" transform="matrix(1 0 0 1 1289 1953)">Exporting</text>
  <text style="stroke:none;fill:black;font-family:-apple-system,&quot;SF Pro Display&quot;,&quot;SF Pro Text&quot;,Helvetica,sans-serif;" transform="matrix(1 0 0 1 1289 1971)">Symbols should be outlined when exporting to ensure the</text>
  <text style="stroke:none;fill:black;font-family:-apple-system,&quot;SF Pro Display&quot;,&quot;SF Pro Text&quot;,Helvetica,sans-serif;" transform="matrix(1 0 0 1 1289 1989)">design is preserved when submitting to Xcode.</text>
  <text id="template-version" style="stroke:none;fill:black;font-family:-apple-system,&quot;SF Pro Display&quot;,&quot;SF Pro Text&quot;,Helvetica,sans-serif;text-anchor:end;" transform="matrix(1 0 0 1 3036 1933)">Template v.2.0</text>
  <text style="stroke:none;fill:black;font-family:-apple-system,&quot;SF Pro Display&quot;,&quot;SF Pro Text&quot;,Helvetica,sans-serif;text-anchor:end;" transform="matrix(1 0 0 1 3036 1951)">Requires Xcode 12 or greater</text>
  <text style="stroke:none;fill:black;font-family:-apple-system,&quot;SF Pro Display&quot;,&quot;SF Pro Text&quot;,Helvetica,sans-serif;text-anchor:end;" transform="matrix(1 0 0 1 3036 1969)">Generated from hearingaid.ear</text>
  <text style="stroke:none;fill:black;font-family:-apple-system,&quot;SF Pro Display&quot;,&quot;SF Pro Text&quot;,Helvetica,sans-serif;text-anchor:end;" transform="matrix(1 0 0 1 3036 1987)">Typeset at 100 points</text>
  <text style="stroke:none;fill:black;font-family:-apple-system,&quot;SF Pro Display&quot;,&quot;SF Pro Text&quot;,Helvetica,sans-serif;" transform="matrix(1 0 0 1 263 726)">Small</text>
  <text style="stroke:none;fill:black;font-family:-apple-system,&quot;SF Pro Display&quot;,&quot;SF Pro Text&quot;,Helvetica,sans-serif;" transform="matrix(1 0 0 1 263 1156)">Medium</text>
  <text style="stroke:none;fill:black;font-family:-apple-system,&quot;SF Pro Display&quot;,&quot;SF Pro Text&quot;,Helvetica,sans-serif;" transform="matrix(1 0 0 1 263 1586)">Large</text>
 </g>
 <g id="Guides">
  <g id="H-reference" style="fill:#27AAE1;stroke:none;" transform="matrix(1 0 0 1 339 696)">
   <path d="M0.976562 0L3.66211 0L12.9883-24.4629L45.752-24.4629L55.127 0L57.7637 0L30.6152-70.459L28.125-70.459ZM29.3457-67.1387L29.4434-67.1387L44.873-26.709L13.8672-26.709Z"/>
  </g>
  <line id="Baseline-S" style="fill:none;stroke:#27AAE1;opacity:1;stroke-width:0.5;" x1="263" x2="3036" y1="696" y2="696"/>
  <line id="Capline-S" style="fill:none;stroke:#27AAE1;opacity:1;stroke-width:0.5;" x1="263" x2="3036" y1="625.541" y2="625.541"/>
  <g id="H-reference" style="fill:#27AAE1;stroke:none;" transform="matrix(1 0 0 1 339 1126)">
   <path d="M0.976562 0L3.66211 0L12.9883-24.4629L45.752-24.4629L55.127 0L57.7637 0L30.6152-70.459L28.125-70.459ZM29.3457-67.1387L29.4434-67.1387L44.873-26.709L13.8672-26.709Z"/>
  </g>
  <line id="Baseline-M" style="fill:none;stroke:#27AAE1;opacity:1;stroke-width:0.5;" x1="263" x2="3036" y1="1126" y2="1126"/>
  <line id="Capline-M" style="fill:none;stroke:#27AAE1;opacity:1;stroke-width:0.5;" x1="263" x2="3036" y1="1055.54" y2="1055.54"/>
  <g id="H-reference" style="fill:#27AAE1;stroke:none;" transform="matrix(1 0 0 1 339 1556)">
   <path d="M0.976562 0L3.66211 0L12.9883-24.4629L45.752-24.4629L55.127 0L57.7637 0L30.6152-70.459L28.125-70.459ZM29.3457-67.1387L29.4434-67.1387L44.873-26.709L13.8672-26.709Z"/>
  </g>
  <line id="Baseline-L" style="fill:none;stroke:#27AAE1;opacity:1;stroke-width:0.5;" x1="263" x2="3036" y1="1556" y2="1556"/>
  <line id="Capline-L" style="fill:none;stroke:#27AAE1;opacity:1;stroke-width:0.5;" x1="263" x2="3036" y1="1485.54" y2="1485.54"/>
  <line id="left-margin" style="fill:none;stroke:#00AEEF;stroke-width:0.5;opacity:1.0;" x1="1401.75" x2="1401.75" y1="1030.79" y2="1150.12"/>
  <line id="right-margin" style="fill:none;stroke:#00AEEF;stroke-width:0.5;opacity:1.0;" x1="1497.94" x2="1497.94" y1="1030.79" y2="1150.12"/>
 </g>
 <g id="Symbols">
  <g id="Black-L" transform="matrix(1 0 0 1 2867.19 1556)">
   <path d="M16.0645-2.73438C16.0645 18.457 28.4668 30.4199 49.0723 30.4199C64.502 30.4199 75.6348 22.8027 82.7637 9.22852L88.2812-1.12305C97.8027-18.8477 121.143-27.4902 121.143-59.2285C121.143-90.8691 100.146-112.012 68.7012-112.012C37.1582-112.012 16.0645-90.6738 16.0645-58.5938ZM32.7148-2.97852L32.7148-58.5938C32.7148-80.7129 47.1191-95.4102 68.7012-95.4102C90.2344-95.4102 104.492-80.9082 104.492-59.2285C104.492-34.0332 84.375-29.248 72.8516-7.37305L68.3594 1.07422C64.209 9.08203 58.7891 13.7207 49.8047 13.7207C39.0625 13.7207 32.7148 7.51953 32.7148-2.97852ZM40.7227-21.3867C40.7227-14.9902 45.8008-10.3516 53.3203-10.3516C63.4766-10.4004 70.2148-17.5781 70.2148-27.7344C70.2148-44.8242 53.3203-47.4609 53.3691-60.791C53.3691-69.2871 59.5215-75.0977 68.7012-75.0977C78.6133-75.0977 85.1074-68.75 85.1074-59.1797C85.1074-55.6641 87.9395-52.832 91.4551-52.832C94.9219-52.832 97.7051-55.6641 97.7051-59.1797C97.7051-76.2207 86.1328-87.6465 68.7012-87.6465C51.9531-87.6465 40.7227-76.3672 40.7227-60.791C40.7227-46.7773 51.5137-42.6758 51.5137-37.4512C51.5137-31.4453 40.7227-32.0801 40.7227-21.3867Z"/>
  </g>
  <g id="Heavy-L" transform="matrix(1 0 0 1 2571.63 1556)">
   <path d="M16.0645-2.73438C16.0645 17.4805 28.0273 29.1992 47.7051 29.1992C62.4512 29.1992 73.1934 21.9727 80.0293 9.0332L85.4004-1.07422C95.8496-20.6055 118.848-27.6855 118.848-59.2285C118.848-90.2832 98.3887-111.035 67.7246-111.035C36.8164-111.035 16.0645-90.0391 16.0645-58.6426ZM30.7129-3.02734L30.7129-58.6426C30.7129-81.3477 45.5078-96.3867 67.7246-96.3867C89.6484-96.3867 104.248-81.4941 104.248-59.2285C104.248-33.6914 83.9844-29.2969 71.9238-6.68945L67.334 1.80664C63.0371 9.96094 57.373 14.4531 48.3398 14.4531C37.3535 14.4531 30.7129 7.86133 30.7129-3.02734ZM39.3555-21.1914C39.3555-14.8438 44.3359-10.3516 51.709-10.3516C61.6699-10.3516 68.3594-17.6758 68.3594-27.7832C68.3594-45.3613 50.9277-47.8027 50.9766-61.084C50.9766-70.1172 57.666-76.416 67.6758-76.416C78.2715-76.416 85.2051-69.5801 85.2051-59.2285C85.2051-56.0547 87.793-53.4668 91.0156-53.4668C94.1895-53.4668 96.7773-56.0547 96.7773-59.2285C96.7773-76.416 85.1562-87.9395 67.6758-87.9395C50.7324-87.9395 39.3555-76.6602 39.3555-61.084C39.3555-47.1191 50.5859-42.9199 50.5859-37.4023C50.5859-31.0547 39.3555-32.0312 39.3555-21.1914Z"/>
  </g>
  <g id="Bold-L" transform="matrix(1 0 0 1 2276.18 1556)">
   <path d="M16.0645-2.68555C16.0645 16.3574 27.5879 27.7832 46.1914 27.7832C60.1562 27.7832 70.459 21.0449 76.9043 8.83789L82.2266-0.976562C93.6523-22.5098 116.309-27.9297 116.309-59.2285C116.309-89.6484 96.4355-109.912 66.6016-109.912C36.377-109.912 16.0645-89.3555 16.0645-58.7402ZM28.4668-3.07617L28.4668-58.7402C28.4668-82.0312 43.75-97.5098 66.6016-97.5098C89.0137-97.5098 103.906-82.1777 103.906-59.2285C103.906-33.3496 83.4961-29.2969 70.8984-5.9082L66.1621 2.68555C61.7676 10.8887 55.7617 15.2344 46.7285 15.2344C35.3516 15.2344 28.4668 8.30078 28.4668-3.07617ZM37.8418-20.9473C37.8418-14.6484 42.7246-10.3516 49.9512-10.3516C59.668-10.3516 66.2598-17.8223 66.2598-27.7832C66.2598-45.8984 48.1934-48.1445 48.2422-61.4746C48.2422-71.0449 55.5664-77.8809 66.5039-77.8809C77.8809-77.8809 85.3027-70.5566 85.3027-59.3262C85.3027-56.4453 87.6465-54.1016 90.5273-54.1016C93.3594-54.1016 95.7031-56.4453 95.7031-59.3262C95.7031-76.6602 84.0332-88.2324 66.5039-88.2324C49.3652-88.2324 37.8418-76.9531 37.8418-61.4746C37.8418-47.5098 49.6094-43.1641 49.6094-37.4023C49.6094-30.6152 37.8418-31.9336 37.8418-20.9473Z"/>
  </g>
  <g id="Semibold-L" transform="matrix(1 0 0 1 1980.35 1556)">
   <path d="M16.0645-2.68555C16.0645 15.5762 27.2949 26.8066 45.1172 26.8066C58.5449 26.8066 68.5547 20.459 74.8047 8.74023L80.0293-0.927734C92.1387-23.8281 114.551-28.0762 114.551-59.2285C114.551-89.1602 95.0684-109.131 65.8203-109.131C36.084-109.131 16.0645-88.916 16.0645-58.7891ZM26.9531-3.125L26.9531-58.7891C26.9531-82.5195 42.5293-98.291 65.8203-98.291C88.5742-98.291 103.711-82.6172 103.711-59.2285C103.711-33.1543 83.2031-29.3457 70.166-5.41992L65.332 3.27148C60.8887 11.5234 54.6387 15.8203 45.6055 15.8203C34.0332 15.8203 26.9531 8.59375 26.9531-3.125ZM36.7676-20.8008C36.7676-14.5508 41.6016-10.3027 48.7305-10.3027C58.252-10.3516 64.7949-17.9199 64.7949-27.7832C64.7949-46.2891 46.3379-48.3887 46.3379-61.7188C46.3379-71.6797 54.1504-78.8574 65.7227-78.8574C77.6367-78.8574 85.4004-71.1914 85.4004-59.375C85.4004-56.7383 87.5488-54.5898 90.1855-54.5898C92.7734-54.5898 94.9707-56.7383 94.9707-59.375C94.9707-76.8066 83.252-88.4277 65.7227-88.4277C48.4375-88.4277 36.7676-77.1973 36.7676-61.7188C36.7676-47.7539 48.9258-43.3594 48.9258-37.3535C48.9258-30.3223 36.7676-31.8848 36.7676-20.8008Z"/>
  </g>
  <g id="Medium-L" transform="matrix(1 0 0 1 1684.3 1556)">
   <path d="M16.0645-2.68555C16.0645 15.0391 27.0508 26.0742 44.3359 26.0742C57.373 26.0742 67.1387 19.9707 73.1934 8.64258L78.3691-0.878906C91.0156-24.8535 113.232-28.1738 113.232-59.2285C113.232-88.8184 94.043-108.545 65.2344-108.545C35.8887-108.545 16.0645-88.5742 16.0645-58.8379ZM25.7812-3.125L25.7812-58.8379C25.7812-82.8613 41.6016-98.877 65.2344-98.877C88.2324-98.877 103.564-82.959 103.564-59.2285C103.564-32.959 82.959-29.3457 69.6289-5.0293L64.6973 3.71094C60.2051 12.0117 53.7598 16.2109 44.7754 16.2109C33.0078 16.2109 25.7812 8.83789 25.7812-3.125ZM35.9863-20.6543C35.9863-14.4531 40.7227-10.3027 47.8027-10.3027C57.1777-10.3516 63.7207-17.9688 63.7207-27.832C63.7207-46.6309 44.9219-48.584 44.9219-61.8652C44.9219-72.1191 53.0273-79.6387 65.0879-79.6387C77.4414-79.6387 85.4492-71.6797 85.4492-59.4238C85.4492-56.9824 87.4512-54.9316 89.9414-54.9316C92.3828-54.9316 94.3848-56.9824 94.3848-59.4238C94.3848-76.9043 82.7148-88.5742 65.0879-88.5742C47.7051-88.5742 35.9863-77.3926 35.9863-61.8652C35.9863-47.9492 48.3887-43.5059 48.3887-37.3535C48.3887-30.127 35.9863-31.8359 35.9863-20.6543Z"/>
  </g>
  <g id="Regular-L" transform="matrix(1 0 0 1 1388.47 1556)">
   <path d="M16.0645-2.68555C16.0645 14.2578 26.709 25.1465 43.3105 25.1465C55.8105 25.1465 65.2832 19.3359 71.0449 8.49609L76.1719-0.830078C89.5508-26.1719 111.475-28.3203 111.475-59.2285C111.475-88.3789 92.7246-107.764 64.4531-107.764C35.5957-107.764 16.0645-88.0859 16.0645-58.8867ZM24.2188-3.17383L24.2188-58.8867C24.2188-83.3496 40.3809-99.6094 64.4531-99.6094C87.793-99.6094 103.32-83.4473 103.32-59.2285C103.32-32.7148 82.666-29.3457 68.9453-4.49219L63.916 4.29688C59.3262 12.6465 52.6855 16.7969 43.6523 16.7969C31.6895 16.7969 24.2188 9.13086 24.2188-3.17383ZM34.9121-20.5078C34.9121-14.3555 39.5996-10.3027 46.582-10.3027C55.8105-10.3516 62.2559-18.0664 62.2559-27.832C62.2559-47.0215 43.0664-48.8281 43.0664-62.1094C43.0664-72.7539 51.6113-80.6641 64.3066-80.6641C77.1973-80.6641 85.498-72.3145 85.498-59.4727C85.498-57.2754 87.3535-55.4199 89.5996-55.4199C91.7969-55.4199 93.6523-57.2754 93.6523-59.4727C93.6523-77.0996 81.9336-88.8184 64.3066-88.8184C46.7773-88.8184 34.9121-77.5879 34.9121-62.1094C34.9121-48.2422 47.7051-43.6523 47.7051-37.3535C47.7051-29.834 34.9121-31.7871 34.9121-20.5078Z"/>
  </g>
  <g id="Light-L" transform="matrix(1 0 0 1 1092.68 1556)">
   <path d="M16.0645-2.73438C16.0645 13.5254 26.5137 24.1211 42.4805 24.1211C54.834 24.1211 64.3066 18.0176 69.9219 7.03125L74.2188-1.2207C87.6953-27.9785 109.668-28.7109 109.668-59.2285C109.668-87.8906 91.2598-106.885 63.5742-106.885C35.3027-106.885 16.0645-87.4023 16.0645-58.6914ZM22.4121-3.02734L22.4121-58.6914C22.4121-83.7891 38.916-100.537 63.5742-100.537C87.3535-100.537 103.32-83.9355 103.32-59.2285C103.32-32.1777 82.4219-30.4199 68.6523-4.10156L64.2578 3.95508C59.5215 13.0371 52.2949 17.7246 42.7246 17.7246C30.3223 17.7246 22.4121 9.61914 22.4121-3.02734ZM34.2285-19.873C34.2285-14.3066 38.5254-10.5957 44.9219-10.5957C53.8574-10.6445 60.2539-17.8711 60.2539-27.1973C60.2539-46.0449 40.5273-47.9004 40.5273-61.8652C40.5273-73.5352 49.707-82.2266 63.2812-82.2266C77.0996-82.2266 85.9375-73.3398 85.9375-59.6191C85.9375-57.9102 87.4023-56.4941 89.1113-56.4941C90.8203-56.4941 92.2363-57.9102 92.2363-59.6191C92.2363-77.002 80.7617-88.5254 63.2812-88.5254C45.9961-88.5254 34.2285-77.2461 34.2285-61.8652C34.2285-47.7051 46.8262-43.0176 46.8262-36.4258C46.8262-27.832 34.2285-30.5176 34.2285-19.873Z"/>
  </g>
  <g id="Thin-L" transform="matrix(1 0 0 1 797.194 1556)">
   <path d="M16.0645-2.7832C16.0645 12.5977 26.2207 22.8027 41.4551 22.8027C53.5645 22.8027 62.9883 16.3086 68.3594 5.07812L71.6309-1.70898C85.2539-30.3711 107.227-29.248 107.227-59.2285C107.227-87.2559 89.3555-105.615 62.3047-105.615C34.9121-105.615 16.0645-86.4258 16.0645-58.3984ZM19.9707-2.83203L19.9707-58.3984C19.9707-84.3262 37.0117-101.758 62.3047-101.758C86.8164-101.758 103.32-84.6191 103.32-59.2285C103.32-31.4453 82.1289-31.7871 68.3105-3.56445L64.7461 3.51562C59.8145 13.5742 51.7578 18.9453 41.5039 18.9453C28.5156 18.9453 19.9707 10.2539 19.9707-2.83203ZM33.3008-19.0918C33.3008-14.209 37.1094-11.0352 42.7734-11.0352C51.2695-11.0352 57.6172-17.627 57.6172-26.3184C57.6172-44.7754 37.1582-46.6797 37.1582-61.5723C37.1582-74.5605 47.168-84.3262 61.9629-84.3262C77.002-84.3262 86.5234-74.707 86.5234-59.8145C86.5234-58.7891 87.4023-57.9102 88.4766-57.9102C89.5508-57.9102 90.3809-58.7891 90.3809-59.8145C90.3809-76.9531 79.1504-88.1836 61.9629-88.1836C44.9707-88.1836 33.3008-76.7578 33.3008-61.5723C33.3008-47.0215 45.6543-42.1875 45.6543-35.2051C45.6543-25.2441 33.3008-28.8574 33.3008-19.0918Z"/>
  </g>
  <g id="Ultralight-L" transform="matrix(1 0 0 1 501.117 1556)">
   <path d="M16.0645-2.7832C16.0645 12.1094 26.0742 22.168 40.918 22.168C52.9297 22.168 62.3047 15.4785 67.5781 4.05273L70.3125-1.95312C83.9844-31.5918 105.957-29.541 105.957-59.2285C105.957-86.9141 88.3789-105.029 61.7188-105.029C34.7168-105.029 16.0645-85.9375 16.0645-58.3008ZM18.7012-2.73438L18.7012-58.3008C18.7012-84.6191 36.0352-102.393 61.7188-102.393C86.5723-102.393 103.32-84.9609 103.32-59.2285C103.32-31.0547 81.9336-32.4707 68.1152-3.27148L65.0391 3.32031C60.0098 13.8184 51.5137 19.5801 40.8691 19.5801C27.6367 19.5801 18.7012 10.5469 18.7012-2.73438ZM32.8125-18.6523C32.8125-14.1602 36.377-11.2305 41.6992-11.2305C49.9512-11.2305 56.2988-17.5293 56.2988-25.8789C56.2988-44.1406 35.4492-46.0449 35.4492-61.4258C35.4492-75.0977 45.8496-85.4004 61.2793-85.4004C76.9531-85.4004 86.8164-75.4395 86.8164-59.9121C86.8164-59.2285 87.4023-58.6426 88.1348-58.6426C88.8672-58.6426 89.4531-59.2285 89.4531-59.9121C89.4531-76.9043 78.3203-88.0371 61.2793-88.0371C44.4824-88.0371 32.8125-76.4648 32.8125-61.4258C32.8125-46.6797 45.0684-41.748 45.0684-34.5703C45.0684-23.9258 32.8125-28.0273 32.8125-18.6523Z"/>
  </g>
  <g id="Black-M" transform="matrix(1 0 0 1 2881.06 1126)">
   <path d="M12.4512-10.1074C12.4512 7.32422 22.4609 16.7969 39.4531 16.7969C52.2461 16.7969 61.377 10.1562 67.2363-1.31836L71.2402-9.13086C77.3926-21.1914 95.9473-29.1992 95.9473-53.8574C95.9473-78.8574 79.1992-95.6055 54.1016-95.6055C29.1504-95.6055 12.4512-78.6133 12.4512-53.125ZM27.0508-10.0586L27.0508-53.125C27.0508-69.873 37.8906-81.0059 54.1016-81.0059C70.459-81.0059 81.3477-70.1172 81.3477-53.8574C81.3477-34.375 65.7715-31.1035 57.5684-14.3066L54.5898-8.30078C51.416-1.80664 47.3145 2.19727 40.0879 2.19727C31.9336 2.19727 27.0508-2.39258 27.0508-10.0586ZM33.0078-24.4629C33.0078-19.6777 36.8652-16.1621 42.627-16.1621C50.5859-16.1621 55.9082-21.2891 55.9082-29.0527C55.9082-41.4551 43.2129-43.7988 43.2617-54.4922C43.2617-60.9375 47.6074-65.2344 54.1016-65.2344C61.2793-65.2344 66.0645-60.6445 66.0645-53.7598C66.0645-50.8789 68.3105-48.6328 71.1914-48.6328C74.0234-48.6328 76.2695-50.8789 76.2695-53.7598C76.2695-66.6992 67.4316-75.3418 54.1016-75.3418C41.5039-75.3418 33.0078-66.5039 33.0078-54.4922C33.0078-43.4082 40.625-40.332 40.625-36.4746C40.625-31.7871 33.0078-32.2266 33.0078-24.4629Z"/>
  </g>
  <g id="Heavy-M" transform="matrix(1 0 0 1 2585.35 1126)">
   <path d="M12.4512-10.0586C12.4512 6.44531 22.0703 15.7227 38.1836 15.7227C50.2441 15.7227 58.9355 9.57031 64.5508-1.12305L68.6035-8.93555C75.7812-22.6074 93.9453-29.2969 93.9453-53.8574C93.9453-78.3691 77.6855-94.7266 53.2715-94.7266C28.8086-94.7266 12.4512-78.125 12.4512-53.2715ZM25.3418-10.1562L25.3418-53.2715C25.3418-70.4102 36.5234-81.8359 53.2715-81.8359C69.9707-81.8359 81.0547-70.6543 81.0547-53.8574C81.0547-34.2285 65.4297-30.9082 56.5918-13.6719L53.3691-7.37305C50.0977-0.976562 45.8496 2.7832 38.7207 2.7832C30.3711 2.7832 25.3418-2.09961 25.3418-10.1562ZM31.7383-24.4141C31.7383-19.5312 35.5469-16.0645 41.3086-16.0645C49.1211-16.0645 54.3457-21.4355 54.3457-29.248C54.3457-42.2852 41.2598-44.3848 41.3086-54.8828C41.3086-61.6211 46.0938-66.2598 53.2227-66.2598C60.9863-66.2598 66.0645-61.2793 66.0645-53.8086C66.0645-51.123 68.1641-49.0234 70.8496-49.0234C73.4863-49.0234 75.5859-51.123 75.5859-53.8086C75.5859-66.9434 66.6504-75.7324 53.2227-75.7324C40.332-75.7324 31.7383-66.8945 31.7383-54.8828C31.7383-43.9453 39.8926-40.7715 39.8926-36.6699C39.8926-31.8848 31.7383-32.4707 31.7383-24.4141Z"/>
  </g>
  <g id="Bold-M" transform="matrix(1 0 0 1 2289.76 1126)">
   <path d="M12.4512-10.0586C12.4512 5.41992 21.6797 14.4531 36.7188 14.4531C47.998 14.4531 56.25 8.98438 61.4746-0.927734L65.6738-8.74023C73.9258-24.1699 91.6992-29.4434 91.6992-53.8574C91.6992-77.7832 75.9277-93.7988 52.2949-93.7988C28.4668-93.7988 12.4512-77.6367 12.4512-53.418ZM23.4375-10.2539L23.4375-53.418C23.4375-71.0938 35.0098-82.8125 52.2949-82.8125C69.3848-82.8125 80.7129-71.1914 80.7129-53.8574C80.7129-33.9844 64.9902-30.6152 55.5664-12.9883L51.9531-6.34766C48.6328-0.0488281 44.1895 3.36914 37.207 3.36914C28.6133 3.36914 23.4375-1.75781 23.4375-10.2539ZM30.2246-24.3164C30.2246-19.3848 34.082-15.918 39.7949-15.918C47.5098-15.9668 52.6367-21.6797 52.6367-29.4434C52.6367-43.1641 39.0137-45.0195 39.0625-55.3223C39.0625-62.4023 44.3359-67.3828 52.2461-67.3828C60.5957-67.3828 66.0645-62.0117 66.0645-53.8574C66.0645-51.416 68.0176-49.4629 70.459-49.4629C72.8516-49.4629 74.8047-51.416 74.8047-53.8574C74.8047-67.1875 65.8203-76.123 52.2461-76.123C39.1113-76.123 30.2246-67.3828 30.2246-55.3223C30.2246-44.5312 39.0625-41.2109 39.0625-36.9141C39.0625-31.9824 30.2246-32.7637 30.2246-24.3164Z"/>
  </g>
  <g id="Semibold-M" transform="matrix(1 0 0 1 1993.83 1126)">
   <path d="M12.4512-10.0098C12.4512 4.73633 21.3379 13.623 35.7422 13.623C46.4844 13.623 54.3945 8.54492 59.4238-0.78125L63.6719-8.59375C72.6562-25.293 90.1855-29.4922 90.1855-53.8574C90.1855-77.3926 74.7559-93.1152 51.6602-93.1152C28.2227-93.1152 12.4512-77.2461 12.4512-53.5156ZM22.1191-10.3516L22.1191-53.5156C22.1191-71.5332 33.9355-83.4473 51.6602-83.4473C68.9453-83.4473 80.4688-71.582 80.4688-53.8574C80.4688-33.8379 64.6973-30.4199 54.834-12.5L50.9766-5.66406C47.6074 0.585938 43.0176 3.80859 36.1816 3.80859C27.3926 3.80859 22.1191-1.51367 22.1191-10.3516ZM29.248-24.2676C29.248-19.2871 33.1055-15.8691 38.8184-15.8691C46.3379-15.918 51.4648-21.7773 51.4648-29.5898C51.4648-43.7988 37.5-45.5078 37.5488-55.6641C37.5488-62.9395 43.1641-68.1641 51.6113-68.1641C60.3516-68.1641 66.0156-62.5 66.0156-53.9062C66.0156-51.6113 67.9199-49.7559 70.166-49.7559C72.4609-49.7559 74.3164-51.6113 74.3164-53.9062C74.3164-67.3828 65.2344-76.416 51.6113-76.416C38.2324-76.416 29.248-67.7246 29.248-55.6641C29.248-44.9219 38.4766-41.5527 38.4766-37.1094C38.4766-32.0312 29.248-32.959 29.248-24.2676Z"/>
  </g>
  <g id="Medium-M" transform="matrix(1 0 0 1 1697.7 1126)">
   <path d="M12.4512-10.0098C12.4512 4.19922 21.1426 12.9883 35.0098 12.9883C45.3125 12.9883 52.9785 8.20312 57.8125-0.634766L62.1582-8.49609C71.6797-26.0742 89.0137-29.541 89.0137-53.8574C89.0137-77.0996 73.877-92.627 51.123-92.627C28.0273-92.627 12.4512-76.9531 12.4512-53.5645ZM21.1426-10.4004L21.1426-53.5645C21.1426-71.8262 33.1543-83.9844 51.123-83.9844C68.6523-83.9844 80.3223-71.875 80.3223-53.8574C80.3223-33.7402 64.502-30.2734 54.2969-12.1094L50.293-5.12695C46.875 1.02539 42.1875 4.15039 35.4004 4.15039C26.5137 4.15039 21.1426-1.36719 21.1426-10.4004ZM28.4668-24.2188C28.4668-19.1895 32.3242-15.8203 38.0371-15.8203C45.5078-15.8691 50.5859-21.9238 50.5859-29.7363C50.5859-44.2871 36.3281-45.8496 36.377-55.9082C36.377-63.3301 42.2852-68.75 51.0742-68.75C60.1562-68.75 66.0156-62.8906 66.0156-53.9062C66.0156-51.7578 67.8223-49.9512 69.9707-49.9512C72.1191-49.9512 73.9258-51.7578 73.9258-53.9062C73.9258-67.5293 64.7949-76.6113 51.0742-76.6113C37.5488-76.6113 28.4668-67.9688 28.4668-55.9082C28.4668-45.2148 38.0371-41.7969 38.0371-37.207C38.0371-32.0801 28.4668-33.1055 28.4668-24.2188Z"/>
  </g>
  <g id="Regular-M" transform="matrix(1 0 0 1 1401.75 1126)">
   <path d="M12.4512-9.96094C12.4512 3.51562 20.8496 12.1094 33.9844 12.1094C43.7988 12.1094 51.123 7.8125 55.7617-0.488281L60.1562-8.34961C70.459-27.1973 87.4512-29.6387 87.4512-53.8574C87.4512-76.709 72.6562-91.9922 50.4883-91.9922C27.7832-91.9922 12.4512-76.6113 12.4512-53.6621ZM19.8242-10.4492L19.8242-53.6621C19.8242-72.2656 32.0801-84.6191 50.4883-84.6191C68.2617-84.6191 80.0781-72.2656 80.0781-53.8574C80.0781-33.5938 64.209-30.0781 53.5645-11.6699L49.3164-4.39453C45.8496 1.66016 41.0156 4.54102 34.3262 4.54102C25.293 4.54102 19.8242-1.12305 19.8242-10.4492ZM27.4902-24.1699C27.4902-19.0918 31.2988-15.7227 37.0117-15.7227C44.3848-15.7715 49.4141-22.0215 49.4141-29.8828C49.4141-44.9219 34.8633-46.2891 34.8633-56.2012C34.8633-63.8672 41.1133-69.5312 50.4395-69.5312C59.9121-69.5312 66.0156-63.3789 66.0156-53.9551C66.0156-51.9531 67.6758-50.2441 69.6777-50.2441C71.6797-50.2441 73.3887-51.9531 73.3887-53.9551C73.3887-67.6758 64.209-76.9043 50.4395-76.9043C36.7188-76.9043 27.4902-68.2617 27.4902-56.2012C27.4902-45.6055 37.5-42.1387 37.5-37.4023C37.5-32.1289 27.4902-33.3008 27.4902-24.1699Z"/>
  </g>
  <g id="Light-M" transform="matrix(1 0 0 1 1105.87 1126)">
   <path d="M12.4512-10.0098C12.4512 2.88086 20.6543 11.2305 33.3008 11.2305C42.9199 11.2305 50.2441 6.64062 54.6875-1.85547L58.3984-8.69141C68.7988-28.8086 85.791-29.9805 85.791-53.8574C85.791-76.2695 71.3867-91.1621 49.6582-91.1621C27.4902-91.1621 12.4512-75.9766 12.4512-53.5156ZM18.1641-10.3516L18.1641-53.5156C18.1641-72.6562 30.8105-85.4492 49.6582-85.4492C67.8711-85.4492 80.0781-72.7539 80.0781-53.8574C80.0781-33.1055 64.0137-31.0059 53.3203-11.2793L49.6582-4.6875C46.0449 2.00195 40.6738 5.37109 33.5449 5.37109C24.1211 5.37109 18.1641-0.683594 18.1641-10.3516ZM26.8555-23.6328C26.8555-19.043 30.3711-16.0156 35.5469-16.0156C42.627-16.0645 47.6074-21.875 47.6074-29.2969C47.6074-44.043 32.5684-45.459 32.5684-56.0059C32.5684-64.5508 39.3555-70.9473 49.5117-70.9473C59.8145-70.9473 66.4062-64.3066 66.4062-54.0527C66.4062-52.5391 67.7246-51.2207 69.2871-51.2207C70.8496-51.2207 72.1191-52.5391 72.1191-54.0527C72.1191-67.627 63.0859-76.6602 49.5117-76.6602C35.9863-76.6602 26.8555-67.9199 26.8555-56.0059C26.8555-45.1172 36.7188-41.5527 36.7188-36.5723C36.7188-30.3711 26.8555-32.1777 26.8555-23.6328Z"/>
  </g>
  <g id="Thin-M" transform="matrix(1 0 0 1 810.255 1126)">
   <path d="M12.4512-10.0586C12.4512 2.05078 20.3613 10.0586 32.373 10.0586C41.7969 10.0586 49.1211 5.07812 53.3203-3.56445L56.0547-9.13086C66.6016-30.957 83.5938-30.4688 83.5938-53.8574C83.5938-75.6836 69.6777-90.0391 48.584-90.0391C27.1484-90.0391 12.4512-75.0977 12.4512-53.2715ZM15.9668-10.1562L15.9668-53.2715C15.9668-73.1445 29.1016-86.5234 48.584-86.5234C67.4316-86.5234 80.0781-73.3398 80.0781-53.8574C80.0781-32.4707 63.7207-32.2754 53.0273-10.791L50.0977-5.07812C46.2891 2.49023 40.2344 6.49414 32.4219 6.49414C22.5098 6.49414 15.9668-0.146484 15.9668-10.1562ZM26.0254-22.9004C26.0254-18.9453 29.1016-16.4062 33.6426-16.4062C40.2832-16.4062 45.2637-21.6309 45.2637-28.5156C45.2637-42.9199 29.541-44.3848 29.541-55.7129C29.541-65.4785 37.1094-72.8516 48.291-72.8516C59.7168-72.8516 66.9434-65.5273 66.9434-54.248C66.9434-53.2715 67.7246-52.4902 68.7012-52.4902C69.6777-52.4902 70.459-53.2715 70.459-54.248C70.459-67.5781 61.6699-76.3672 48.291-76.3672C35.1074-76.3672 26.0254-67.4805 26.0254-55.7129C26.0254-44.5312 35.6445-40.7715 35.6445-35.4492C35.6445-28.0762 26.0254-30.6641 26.0254-22.9004Z"/>
  </g>
  <g id="Ultralight-M" transform="matrix(1 0 0 1 514.106 1126)">
   <path d="M12.4512-10.1074C12.4512 1.61133 20.2637 9.42383 31.8848 9.42383C41.2109 9.42383 48.4863 4.29688 52.5879-4.49219L54.8828-9.375C65.4785-32.0312 82.4707-30.7129 82.4707-53.8574C82.4707-75.3906 68.7988-89.502 47.998-89.502C26.9531-89.502 12.4512-74.6582 12.4512-53.125ZM14.8438-10.0586L14.8438-53.125C14.8438-73.4375 28.2227-87.1094 47.998-87.1094C67.1875-87.1094 80.0781-73.6816 80.0781-53.8574C80.0781-32.1289 63.5742-32.8613 52.832-10.5469L50.293-5.32227C46.4355 2.73438 39.9902 7.03125 31.8848 7.03125C21.6797 7.03125 14.8438 0.146484 14.8438-10.0586ZM25.5859-22.5098C25.5859-18.9453 28.418-16.6016 32.6172-16.6016C39.1113-16.6016 44.043-21.5332 44.043-28.125C44.043-42.334 27.9785-43.7988 27.9785-55.5664C27.9785-65.9668 35.9375-73.7793 47.7051-73.7793C59.6191-73.7793 67.1875-66.1621 67.1875-54.3457C67.1875-53.6621 67.7246-53.125 68.4082-53.125C69.0918-53.125 69.6289-53.6621 69.6289-54.3457C69.6289-67.5293 60.9375-76.1719 47.7051-76.1719C34.6191-76.1719 25.5859-67.2852 25.5859-55.5664C25.5859-44.1895 35.1074-40.3809 35.1074-34.9121C35.1074-26.8555 25.5859-29.8828 25.5859-22.5098Z"/>
  </g>
  <g id="Black-S" transform="matrix(1 0 0 1 2892.46 696)">
   <path d="M9.76562-15.5273C9.76562-1.95312 17.5781 5.46875 30.8105 5.46875C40.7715 5.46875 47.9004 0.292969 52.4902-8.64258L55.6152-14.7461C60.5469-24.3164 75.0488-30.5176 75.0488-49.8047C75.0488-69.3848 61.9629-82.4707 42.334-82.4707C22.8027-82.4707 9.76562-69.1895 9.76562-49.2676ZM21.0938-15.5273L21.0938-49.2676C21.0938-62.4023 29.5898-71.1426 42.334-71.1426C55.1758-71.1426 63.7207-62.5977 63.7207-49.8047C63.7207-34.5703 51.5137-31.9824 45.0195-18.7988L42.6758-14.0625C40.1855-8.98438 36.9629-5.85938 31.2988-5.85938C24.9023-5.85938 21.0938-9.47266 21.0938-15.5273ZM25.7812-26.8066C25.7812-23.0469 28.8086-20.2637 33.3008-20.2637C39.5508-20.2637 43.7012-24.3164 43.7012-30.4199C43.7012-40.1855 33.7402-41.9922 33.7891-50.3418C33.7891-55.4199 37.207-58.7891 42.334-58.7891C47.998-58.7891 51.7578-55.1758 51.7578-49.7559C51.7578-47.5098 53.5156-45.752 55.7617-45.752C57.959-45.752 59.7168-47.5098 59.7168-49.7559C59.7168-59.9121 52.7832-66.6992 42.334-66.6992C32.4219-66.6992 25.7812-59.7656 25.7812-50.3418C25.7812-41.6992 31.7871-39.2578 31.7871-36.2305C31.7871-32.5684 25.7812-32.9102 25.7812-26.8066Z"/>
  </g>
  <g id="Heavy-S" transform="matrix(1 0 0 1 2596.43 696)">
   <path d="M9.76562-15.5273C9.76562-2.58789 17.2852 4.73633 29.9316 4.73633C39.3555 4.73633 46.1426 0 50.5371-8.34961L53.8086-14.5508C59.4727-25.1953 73.6816-30.5664 73.6816-49.8047C73.6816-69.043 60.9375-81.9336 41.7969-81.9336C22.6074-81.9336 9.76562-68.8965 9.76562-49.3652ZM19.9707-15.625L19.9707-49.3652C19.9707-62.793 28.7109-71.6797 41.7969-71.6797C54.834-71.6797 63.4766-62.9395 63.4766-49.8047C63.4766-34.4727 51.2695-31.6895 44.3359-18.3594L41.6992-13.3301C39.1602-8.39844 35.8887-5.51758 30.3711-5.51758C23.8281-5.51758 19.9707-9.27734 19.9707-15.625ZM24.8535-26.8066C24.8535-22.9492 27.9297-20.166 32.4707-20.166C38.623-20.166 42.7246-24.4629 42.7246-30.6152C42.7246-40.918 32.4707-42.5293 32.5195-50.6836C32.5195-55.8594 36.2305-59.4238 41.748-59.4238C47.7539-59.4238 51.709-55.5664 51.709-49.7559C51.709-47.6562 53.418-45.9473 55.5176-45.9473C57.6172-45.9473 59.3262-47.6562 59.3262-49.7559C59.3262-60.1074 52.2949-66.9922 41.748-66.9922C31.6406-66.9922 24.8535-60.1074 24.8535-50.6836C24.8535-42.1387 31.2988-39.6484 31.2988-36.4746C31.2988-32.8125 24.8535-33.2031 24.8535-26.8066Z"/>
  </g>
  <g id="Bold-S" transform="matrix(1 0 0 1 2300.48 696)">
   <path d="M9.76562-15.4785C9.76562-3.27148 16.9922 3.90625 28.9062 3.90625C37.7441 3.90625 44.1895-0.341797 48.3398-8.00781L51.8066-14.4043C58.252-26.2207 72.168-30.6152 72.168-49.8047C72.168-68.6523 59.7656-81.2988 41.1621-81.2988C22.3633-81.2988 9.76562-68.5547 9.76562-49.5117ZM18.7012-15.7227L18.7012-49.5117C18.7012-63.2324 27.6855-72.3145 41.1621-72.3145C54.3945-72.3145 63.2324-63.3301 63.2324-49.8047C63.2324-34.375 50.9766-31.3477 43.5547-17.8711L40.5762-12.5C37.9883-7.71484 34.6191-5.17578 29.2969-5.17578C22.6562-5.17578 18.7012-9.08203 18.7012-15.7227ZM23.8281-26.8066C23.8281-22.8027 26.9043-20.0195 31.4941-20.0195C37.5977-20.0684 41.6504-24.6582 41.6504-30.8594C41.6504-41.6992 31.0547-43.1641 31.1035-51.0742C31.1035-56.3965 35.1074-60.1074 41.1621-60.1074C47.4609-60.1074 51.6602-56.0059 51.6602-49.8047C51.6602-47.7539 53.2715-46.1426 55.2734-46.1426C57.2754-46.1426 58.9355-47.7539 58.9355-49.8047C58.9355-60.3027 51.8066-67.334 41.1621-67.334C30.7617-67.334 23.8281-60.498 23.8281-51.0742C23.8281-42.627 30.7617-40.0879 30.7617-36.7676C30.7617-33.1055 23.8281-33.5938 23.8281-26.8066Z"/>
  </g>
  <g id="Semibold-S" transform="matrix(1 0 0 1 2004.28 696)">
   <path d="M9.76562-15.4785C9.76562-3.71094 16.7969 3.32031 28.2227 3.32031C36.6699 3.32031 42.8223-0.585938 46.8262-7.76367L50.3906-14.2578C57.4219-26.9043 71.1426-30.6152 71.1426-49.8047C71.1426-68.4082 58.9844-80.8594 40.7227-80.8594C22.168-80.8594 9.76562-68.3594 9.76562-49.6094ZM17.8711-15.7715L17.8711-49.6094C17.8711-63.5254 27.002-72.7539 40.7227-72.7539C54.1504-72.7539 63.0371-63.5742 63.0371-49.8047C63.0371-34.3262 50.7812-31.1523 43.0176-17.5293L39.7949-11.9141C37.207-7.27539 33.7891-4.88281 28.5645-4.88281C21.8262-4.88281 17.8711-8.98438 17.8711-15.7715ZM23.0957-26.8066C23.0957-22.7539 26.2207-19.9707 30.8594-19.9707C36.8652-19.9707 40.8691-24.7559 40.8691-31.0059C40.8691-42.2363 30.0781-43.5547 30.127-51.3184C30.127-56.7383 34.375-60.5957 40.7227-60.5957C47.2656-60.5957 51.6113-56.2988 51.6113-49.8047C51.6113-47.8516 53.1738-46.2891 55.127-46.2891C57.0312-46.2891 58.5938-47.8516 58.5938-49.8047C58.5938-60.4492 51.416-67.5781 40.7227-67.5781C30.127-67.5781 23.0957-60.791 23.0957-51.3184C23.0957-42.9688 30.4199-40.3809 30.4199-36.9629C30.4199-33.3008 23.0957-33.8379 23.0957-26.8066Z"/>
  </g>
  <g id="Medium-S" transform="matrix(1 0 0 1 1707.96 696)">
   <path d="M9.76562-15.4297C9.76562-4.10156 16.6504 2.88086 27.6855 2.88086C35.8398 2.88086 41.8457-0.732422 45.6543-7.61719L49.3652-14.1602C56.8359-27.4414 70.3613-30.6641 70.3613-49.8047C70.3613-68.2129 58.3496-80.5176 40.3809-80.5176C22.0703-80.5176 9.76562-68.1641 9.76562-49.707ZM17.1875-15.8203L17.1875-49.707C17.1875-63.7695 26.4648-73.0957 40.3809-73.0957C53.9062-73.0957 62.9395-63.7695 62.9395-49.8047C62.9395-34.2773 50.5859-30.957 42.627-17.2852L39.2578-11.4746C36.6211-6.93359 33.1543-4.73633 28.0273-4.73633C21.2402-4.73633 17.1875-8.83789 17.1875-15.8203ZM22.5586-26.8066C22.5586-22.6562 25.6836-19.9219 30.3711-19.9219C36.3281-19.9219 40.332-24.8535 40.332-31.1523C40.332-42.6758 29.3457-43.8965 29.3945-51.5137C29.3945-56.9824 33.7891-60.9375 40.3809-60.9375C47.168-60.9375 51.5625-56.543 51.5625-49.8047C51.5625-47.9492 53.125-46.3867 54.9805-46.3867C56.8359-46.3867 58.3984-47.9492 58.3984-49.8047C58.3984-60.5469 51.1719-67.7734 40.3809-67.7734C29.6875-67.7734 22.5586-60.9863 22.5586-51.5137C22.5586-43.2617 30.127-40.625 30.127-37.1094C30.127-33.4473 22.5586-33.9844 22.5586-26.8066Z"/>
  </g>
  <g id="Regular-S" transform="matrix(1 0 0 1 1411.76 696)">
   <path d="M9.76562-15.4297C9.76562-4.54102 16.4062 2.29492 27.002 2.29492C34.7168 2.29492 40.4785-0.976562 44.1895-7.37305L47.9492-14.0137C56.0059-28.125 69.3359-30.6641 69.3359-49.8047C69.3359-67.9688 57.5684-80.0781 39.9414-80.0781C21.875-80.0781 9.76562-67.9688 9.76562-49.7559ZM16.3574-15.918L16.3574-49.7559C16.3574-64.0625 25.7812-73.5352 39.9414-73.5352C53.6621-73.5352 62.7441-64.0137 62.7441-49.8047C62.7441-34.1797 50.3906-30.7617 42.0898-16.9434L38.4766-10.9375C35.8398-6.49414 32.3242-4.44336 27.2949-4.44336C20.4102-4.44336 16.3574-8.74023 16.3574-15.918ZM21.8262-26.8066C21.8262-22.6074 25-19.8242 29.6875-19.8242C35.5957-19.873 39.5508-24.9512 39.5508-31.2988C39.5508-43.2129 28.418-44.2871 28.418-51.7578C28.418-57.3242 33.0566-61.4258 39.9414-61.4258C46.9727-61.4258 51.5137-56.8359 51.5137-49.8047C51.5137-48.0469 53.0273-46.5332 54.834-46.5332C56.5918-46.5332 58.1055-48.0469 58.1055-49.8047C58.1055-60.6934 50.8301-67.9688 39.9414-67.9688C29.1016-67.9688 21.8262-61.2793 21.8262-51.7578C21.8262-43.6035 29.7363-40.918 29.7363-37.3047C29.7363-33.6426 21.8262-34.2285 21.8262-26.8066Z"/>
  </g>
  <g id="Light-S" transform="matrix(1 0 0 1 1115.78 696)">
   <path d="M9.76562-15.4785C9.76562-5.12695 16.2598 1.51367 26.3672 1.51367C33.9844 1.51367 39.6973-2.00195 43.2617-8.54492L46.4355-14.3066C54.541-29.5898 67.8711-31.0059 67.8711-49.8047C67.8711-67.5293 56.3965-79.3457 39.209-79.3457C21.6309-79.3457 9.76562-67.3828 9.76562-49.6094ZM14.8926-15.7715L14.8926-49.6094C14.8926-64.4043 24.6094-74.2676 39.209-74.2676C53.3203-74.2676 62.7441-64.4531 62.7441-49.8047C62.7441-33.7402 50.1953-31.5918 41.8945-16.6016L38.7695-11.1816C35.9863-6.20117 32.0312-3.71094 26.5625-3.71094C19.3359-3.71094 14.8926-8.34961 14.8926-15.7715ZM21.2891-26.3184C21.2891-22.5586 24.1699-20.0684 28.418-20.0684C34.082-20.1172 37.9883-24.8047 37.9883-30.8105C37.9883-42.4805 26.3672-43.5547 26.3672-51.5625C26.3672-57.959 31.4941-62.6465 39.1602-62.6465C46.875-62.6465 51.8555-57.666 51.8555-49.9512C51.8555-48.5352 53.0273-47.3633 54.4434-47.3633C55.8105-47.3633 56.9824-48.5352 56.9824-49.9512C56.9824-60.6445 49.8535-67.7734 39.1602-67.7734C28.4668-67.7734 21.2891-60.9863 21.2891-51.5625C21.2891-43.1641 29.0527-40.4297 29.0527-36.5723C29.0527-32.1289 21.2891-33.252 21.2891-26.3184Z"/>
  </g>
  <g id="Thin-S" transform="matrix(1 0 0 1 820.045 696)">
   <path d="M9.76562-15.4785C9.76562-5.85938 16.0156 0.488281 25.5371 0.488281C32.959 0.488281 38.6719-3.32031 42.041-10.1074L44.3848-14.6973C52.5879-31.4453 65.918-31.3965 65.918-49.8047C65.918-67.041 54.9316-78.418 38.2812-78.418C21.3379-78.418 9.76562-66.6504 9.76562-49.4141ZM12.9395-15.625L12.9395-49.4141C12.9395-64.8438 23.1445-75.1953 38.2812-75.1953C52.9297-75.1953 62.7441-64.9902 62.7441-49.8047C62.7441-33.2031 49.9512-32.666 41.6016-16.2109L39.1602-11.5234C36.2305-5.76172 31.5918-2.7832 25.6348-2.7832C17.9199-2.7832 12.9395-7.86133 12.9395-15.625ZM20.5566-25.6836C20.5566-22.5098 23.0469-20.4102 26.709-20.4102C32.0312-20.4102 35.8887-24.6582 35.8887-30.127C35.8887-41.4551 23.7305-42.627 23.7305-51.3184C23.7305-58.7402 29.4922-64.3066 38.0859-64.3066C46.7773-64.3066 52.3438-58.7402 52.3438-50.0977C52.3438-49.2188 53.0762-48.4863 53.9551-48.4863C54.7852-48.4863 55.5176-49.2188 55.5176-50.0977C55.5176-60.5957 48.584-67.5293 38.0859-67.5293C27.6855-67.5293 20.5566-60.5957 20.5566-51.3184C20.5566-42.627 28.125-39.7461 28.125-35.6445C28.125-30.0781 20.5566-31.9336 20.5566-25.6836Z"/>
  </g>
  <g id="Ultralight-S" transform="matrix(1 0 0 1 523.822 696)">
   <path d="M9.76562-15.5273C9.76562-6.25 15.918-0.0488281 25.0977-0.0488281C32.4219-0.0488281 38.1348-4.05273 41.4062-10.8887L43.3105-14.8926C51.6113-32.4219 64.9414-31.6406 64.9414-49.8047C64.9414-66.748 54.1504-77.8809 37.7441-77.8809C21.1914-77.8809 9.76562-66.2598 9.76562-49.3164ZM11.9629-15.5273L11.9629-49.3164C11.9629-65.0879 22.3633-75.7324 37.7441-75.7324C52.6855-75.7324 62.7441-65.2832 62.7441-49.8047C62.7441-32.8613 49.8535-33.2031 41.4551-15.9668L39.3555-11.7188C36.3281-5.56641 31.3965-2.24609 25.0977-2.24609C17.1875-2.24609 11.9629-7.56836 11.9629-15.5273ZM20.166-25.3906C20.166-22.4609 22.4609-20.5566 25.8301-20.5566C30.957-20.5566 34.8145-24.5117 34.8145-29.7852C34.8145-40.918 22.3145-42.0898 22.3145-51.2207C22.3145-59.1797 28.4668-65.1855 37.5488-65.1855C46.7285-65.1855 52.5879-59.2773 52.5879-50.1953C52.5879-49.5605 53.0762-49.0723 53.6621-49.0723C54.248-49.0723 54.7852-49.5605 54.7852-50.1953C54.7852-60.5469 47.9492-67.3828 37.5488-67.3828C27.2461-67.3828 20.166-60.4004 20.166-51.2207C20.166-42.334 27.6367-39.4043 27.6367-35.1074C27.6367-29.0039 20.166-31.25 20.166-25.3906Z"/>
  </g>
 </g>
</svg>
