<svg width="30" height="31" viewBox="0 0 30 31" fill="none" xmlns="http://www.w3.org/2000/svg">
<path d="M15 0.885712C11.4386 0.885712 8.57142 3.89401 8.57142 7.63077V12.1275C6.21428 12.1275 4.28571 14.151 4.28571 16.6242V25.6176C4.28571 28.0908 6.21428 30.1143 8.57142 30.1143H21.4286C23.7857 30.1143 25.7143 28.0908 25.7143 25.6176V16.6242C25.7143 14.151 23.7857 12.1275 21.4286 12.1275H10.7143V7.63077C10.7143 5.07214 12.5614 3.13406 15 3.13406C17.4386 3.13406 19.2857 5.07214 19.2857 7.63077V8.75494H21.4286V7.63077C21.4286 3.89401 18.5614 0.885712 15 0.885712ZM15 17.7483C16.1786 17.7483 17.1428 18.7601 17.1428 19.9967C17.1428 20.7836 16.7143 21.5559 16.0714 21.8943V24.4934C16.0714 25.1679 15.6428 25.6176 15 25.6176C14.3571 25.6176 13.9286 25.1679 13.9286 24.4934V21.8932C13.2857 21.5559 12.8571 20.7836 12.8571 19.9967C12.8571 18.7601 13.8214 17.7483 15 17.7483Z" fill="black"/>
</svg>
