<svg width="30" height="30" viewBox="0 0 30 30" fill="none" xmlns="http://www.w3.org/2000/svg">
<path fill-rule="evenodd" clip-rule="evenodd" d="M23.2454 4.16787C23.6705 3.87228 24.2547 3.97727 24.5503 4.40237C26.5003 7.20664 27.6444 10.9258 27.6444 15.0226C27.6444 19.1193 26.5003 22.8397 24.5503 25.644C24.2547 26.0691 23.6705 26.1741 23.2454 25.8785C22.8203 25.583 22.7153 24.9987 23.0109 24.5736C24.7185 22.1179 25.7694 18.7808 25.7694 15.0226C25.7694 11.2644 24.7185 7.92853 23.0109 5.4728C22.7153 5.0477 22.8203 4.46346 23.2454 4.16787ZM13.3086 7.1909C13.0834 6.45914 12.5758 6.17669 12.1901 6.18795C12.1743 6.18841 12.1584 6.18847 12.1426 6.18813C12.1426 6.18813 12.11 6.18962 12.0376 6.20847C11.9627 6.22799 11.8704 6.26008 11.7684 6.30495C11.5576 6.3976 11.3632 6.51874 11.2422 6.62123L11.2286 6.63255L6.61758 10.3912C6.45029 10.5276 6.24107 10.602 6.02524 10.602H3.40221C2.72471 10.602 2.1696 11.0984 2.04252 11.9901C1.82972 13.706 1.8092 16.773 2.0415 18.4242L2.04382 18.4419C2.11092 18.9952 2.29934 19.3538 2.51119 19.5658C2.71269 19.7675 2.99608 19.8994 3.40221 19.8994H6.02524C6.24051 19.8994 6.44921 19.9735 6.6163 20.1092L11.3369 23.9434C11.46 24.0468 11.6276 24.1488 11.8012 24.2213C11.9853 24.2983 12.1052 24.313 12.1397 24.3121C12.1565 24.3117 12.1733 24.3117 12.1901 24.3122C12.5769 24.3235 13.0847 24.041 13.3094 23.3067C13.4322 22.8435 13.4743 22.4207 13.5241 21.9205C13.5447 21.7135 13.5666 21.4932 13.5962 21.2513L13.5965 21.2485C13.6948 20.4637 13.75 17.9024 13.75 15.2507C13.75 12.5991 13.6948 10.0378 13.5965 9.25299L13.5962 9.25017C13.5692 9.02906 13.5469 8.81924 13.5255 8.61894C13.4689 8.08668 13.4194 7.6217 13.3086 7.1909ZM12.1569 4.3132C13.5548 4.28305 14.6978 5.29548 15.1092 6.66767C15.1124 6.67829 15.1154 6.68897 15.1182 6.6997C15.2712 7.28452 15.3427 7.96108 15.4036 8.53733C15.4218 8.70949 15.439 8.8727 15.4572 9.02183C15.5732 9.95089 15.625 12.646 15.625 15.2507C15.625 17.8555 15.5732 20.5505 15.4572 21.4796C15.4385 21.6331 15.4219 21.8001 15.4044 21.9771C15.3495 22.5294 15.2852 23.1776 15.1167 23.806C15.1144 23.8148 15.1119 23.8235 15.1093 23.8322C14.6979 25.2059 13.5553 26.2161 12.1589 26.187C12.1679 26.1869 12.1769 26.1868 12.1858 26.1865L12.1589 26.187L12.1354 26.1864C12.1433 26.1867 12.1511 26.1868 12.1589 26.187C11.7763 26.1911 11.3941 26.0833 11.0784 25.9514C10.7474 25.8131 10.4161 25.6176 10.1369 25.3842L10.1425 25.3888L10.1303 25.3787C10.1325 25.3806 10.1347 25.3824 10.1369 25.3842L5.69249 21.7744H3.40221C2.5435 21.7744 1.76847 21.4753 1.18471 20.891C0.613303 20.319 0.28987 19.54 0.183574 18.6768C0.183975 18.6797 0.184377 18.6825 0.18478 18.6854L0.182458 18.6677C0.182827 18.6707 0.183199 18.6737 0.183574 18.6768C-0.0742431 16.8336 -0.0475483 13.5995 0.182834 11.7508L0.184571 11.7369C0.403756 10.1698 1.55168 8.72703 3.40221 8.72703H5.69155L10.0377 5.1843C10.0352 5.18638 10.0328 5.18847 10.0303 5.19055L10.0377 5.1843C10.3191 4.94744 10.6718 4.73882 11.0139 4.58846C11.3325 4.4484 11.7504 4.31052 12.1569 4.3132ZM12.1569 4.3132C12.1498 4.31335 12.1426 4.31353 12.1354 4.31374L12.1569 4.3132L12.1829 4.31356C12.1743 4.31338 12.1656 4.31325 12.1569 4.3132ZM18.9566 7.99347C19.3817 7.6979 19.9659 7.80293 20.2615 8.22804C21.5176 10.0348 22.2455 12.4164 22.2455 15.0232C22.2455 17.6301 21.5176 20.0105 20.2615 21.8171C19.9659 22.2422 19.3817 22.3473 18.9566 22.0517C18.5315 21.7561 18.4264 21.1719 18.722 20.7468C19.7359 19.2885 20.3705 17.2913 20.3705 15.0232C20.3705 12.755 19.7359 10.7566 18.722 9.29837C18.4264 8.87326 18.5315 8.28903 18.9566 7.99347Z" fill="black"/>
</svg>
