<svg width="23" height="28" viewBox="0 0 23 28" fill="none" xmlns="http://www.w3.org/2000/svg">
<path fill-rule="evenodd" clip-rule="evenodd" d="M10.4297 17.1398L10.4296 17.1398C9.95169 16.728 9.72075 16.529 8.27474 16.529C8.09439 16.5548 7.91624 16.5835 7.74102 16.6117C6.37039 16.8324 5.17935 17.0241 4.52437 15.563C4.37016 12.9926 4.35546 8.82142 4.35406 4.02773H0.039298C0.0477584 5.76883 0.0682885 7.71569 0.089321 9.71019C0.11861 12.4877 0.148874 15.3575 0.148874 17.8928C0.603464 23.0069 2.93324 27.6665 8.67261 27.837C12.8776 27.837 13.3322 19.52 10.7183 17.3814C10.6086 17.294 10.5152 17.2135 10.4297 17.1398ZM0.0353112 2.66396C0.0352728 2.60684 0.0352532 2.55004 0.0352531 2.49355C-0.476134 -0.915874 4.75168 -0.745403 4.35392 2.49355C4.35392 2.55042 4.35392 2.60723 4.35392 2.66396H0.0353112ZM8.10765 23.916C8.10765 24.4809 8.56559 24.9389 9.13048 24.9389C9.69537 24.9389 10.1533 24.4809 10.1533 23.916V20.6203C10.1533 20.0554 9.69537 19.5974 9.13048 19.5974C8.56559 19.5974 8.10765 20.0554 8.10765 20.6203V23.916Z" fill="black"/>
<path fill-rule="evenodd" clip-rule="evenodd" d="M11.9092 10.6974L11.9092 10.6974C12.3872 11.1092 12.6181 11.3082 14.0641 11.3082C14.2445 11.2824 14.4226 11.2537 14.5978 11.2255C15.9685 11.0049 17.1595 10.8131 17.8145 12.2742C17.9687 14.8447 17.9834 19.0158 17.9848 23.8095H22.2996C22.2911 22.0684 22.2706 20.1215 22.2495 18.127C22.2203 15.3495 22.19 12.4797 22.19 9.94442C21.7354 4.83028 19.4056 0.170731 13.6663 0.000259399C9.4613 0.000259399 9.00671 8.31719 11.6206 10.4558C11.7303 10.5432 11.8237 10.6237 11.9092 10.6974ZM22.3036 25.1733C22.3036 25.2304 22.3036 25.2872 22.3036 25.3437C22.815 28.7531 17.5872 28.5826 17.985 25.3437C17.985 25.2868 17.985 25.23 17.985 25.1733H22.3036ZM14.2312 3.92118C14.2312 3.35629 13.7733 2.89835 13.2084 2.89835C12.6435 2.89835 12.1856 3.35628 12.1856 3.92118V7.21696C12.1856 7.78185 12.6435 8.23978 13.2084 8.23978C13.7733 8.23978 14.2312 7.78185 14.2312 7.21696V3.92118Z" fill="black"/>
</svg>
