<svg width="179" height="67" viewBox="0 0 179 67" fill="none" xmlns="http://www.w3.org/2000/svg">
<path fill-rule="evenodd" clip-rule="evenodd" d="M143.566 7.48923C143.233 8.06227 144.382 9.34212 146.129 10.3491C147.443 11.1097 148.853 11.2752 149.514 11.229C150.582 11.7436 151.573 12.3185 152.492 12.9488L152.592 13.0257C151.992 12.8443 150.523 12.7096 149.03 13.2242C147.125 13.8774 145.755 14.9153 145.97 15.5427C146.184 16.1701 147.906 16.1453 149.811 15.4921C151.584 14.8852 152.765 13.5783 152.867 13.2364L153.988 14.0819C154.188 14.2468 154.38 14.4132 154.569 14.5804L155.1 15.0712C155.633 15.5836 156.133 16.1138 156.598 16.6697C156.066 16.3429 154.678 15.838 153.102 15.9482C151.092 16.0926 149.5 16.7446 149.547 17.4042C149.593 18.0638 151.265 18.4827 153.275 18.3383C155.159 18.2025 156.646 17.2308 156.812 16.9335C157.876 18.2458 158.754 19.6708 159.458 21.1692C158.983 20.7064 157.806 19.9238 156.321 19.6434C154.339 19.2724 152.634 19.4973 152.511 20.1493C152.388 20.8013 153.896 21.6265 155.878 21.9975C157.681 22.3338 159.326 21.8123 159.636 21.5571C160.215 22.8673 160.664 24.2308 160.99 25.6314C161.348 27.3018 161.538 29.0077 161.588 30.7037L161.528 31.7645C161.367 31.151 160.729 29.8388 159.533 28.8345C157.994 27.536 156.395 26.8942 155.967 27.4C155.54 27.9059 156.444 29.3689 157.983 30.6675C159.433 31.887 161.182 32.2275 161.503 32.1263L161.32 35.302C160.971 37.7741 160.347 40.185 159.385 42.4787C159.495 41.9748 159.417 40.3686 158.578 38.8698C157.594 37.1147 156.324 35.9515 155.748 36.2743C155.169 36.5979 155.501 38.2846 156.486 40.0397C157.47 41.7949 159.131 42.7402 159.316 42.6352C159.32 42.6344 159.322 42.6302 159.322 42.6302C159.149 43.0309 158.969 43.4296 158.776 43.8236L157.055 46.7266C157.165 46.0007 157.172 44.8059 156.749 43.6005C156.087 41.7002 155.04 40.3367 154.413 40.5541C153.788 40.7708 153.818 42.4893 154.484 44.3888C155.056 46.0208 156.216 47.1491 156.661 47.389L156.441 47.7596L153.793 51.082C154.043 50.3955 154.289 49.1934 154.09 47.893C153.788 45.9051 153.011 44.3714 152.355 44.4712C151.698 44.5711 151.416 46.2649 151.718 48.2528C151.978 49.9586 152.913 51.2768 153.306 51.6005C152.232 52.6771 151.07 53.6125 149.813 54.4479C150.177 53.8026 150.59 52.7505 150.655 51.543C150.761 49.5339 150.31 47.8759 149.651 47.8418C148.988 47.8084 148.368 49.4068 148.259 51.4167C148.175 53.0285 148.736 54.4261 149.07 54.9264C148.844 55.0654 148.615 55.2017 148.382 55.3386L145.12 56.8704C145.61 56.3184 146.208 55.416 146.531 54.303C147.086 52.369 147.024 50.6537 146.387 50.4692C145.75 50.2848 144.782 51.7062 144.227 53.6402C143.769 55.2261 144.023 56.7512 144.242 57.2795L141.658 58.3685C140.827 58.8111 140.036 59.4598 139.543 60.2708L139.114 61.1919C139.048 61.4789 139.226 61.7649 139.514 61.8344C139.801 61.9005 140.088 61.7231 140.157 61.4354C140.28 60.9362 140.425 60.4905 140.802 60.1081C141.863 59.0379 143.21 58.4707 144.573 57.9222C144.861 58.4028 145.949 59.5173 147.519 60.089C149.413 60.7808 151.131 60.8369 151.358 60.2136C151.586 59.5937 150.235 58.5279 148.342 57.8397C147.397 57.4952 146.453 57.4123 145.742 57.4438C146.059 57.3071 146.374 57.1635 146.68 57.0075C147.642 56.515 148.574 55.9817 149.474 55.4007C149.672 55.7297 151.088 56.7416 152.925 56.9651C154.924 57.2123 156.613 56.878 156.695 56.2238C156.777 55.566 155.22 54.835 153.218 54.5885C152.012 54.4379 150.898 54.6643 150.2 54.9113C151.462 54.0311 152.645 53.0403 153.723 51.9266C154.014 52.2139 155.589 52.8972 157.409 52.7531C159.419 52.5906 161.004 51.9254 160.95 51.2638C160.897 50.6057 159.224 50.2014 157.215 50.364C155.957 50.4645 154.881 50.9375 154.255 51.3329L156.814 48.0186C156.905 47.8828 156.999 47.7427 157.09 47.6068C157.314 47.8322 159.059 48.2718 160.905 47.7729C162.852 47.2455 164.285 46.2996 164.112 45.6598C163.938 45.0199 162.221 44.931 160.275 45.4584C158.994 45.8077 157.984 46.5213 157.459 47.0298C158.307 45.6811 159.071 44.263 159.689 42.7958C160.121 42.955 161.789 43.018 163.398 42.2604C165.222 41.4024 166.471 40.223 166.186 39.6251C165.905 39.0264 164.197 39.2374 162.373 40.0955C161.304 40.5998 160.499 41.3499 160.035 41.9253C160.038 41.9211 160.037 41.9176 160.04 41.9134L161.212 37.5338C161.437 37.6823 163.275 37.5199 164.867 36.3947C166.513 35.2326 167.537 33.8537 167.155 33.3129C166.773 32.772 165.128 33.2753 163.482 34.4375C162.247 35.3082 161.51 36.5097 161.27 37.1283L161.84 32.9825C161.855 32.6955 161.862 32.4065 161.866 32.1182C162.151 32.2067 163.898 31.7034 165.239 30.3226C166.643 28.8809 167.394 27.3345 166.92 26.8751C166.446 26.4122 164.922 27.2099 163.519 28.6551C162.539 29.6607 162.033 30.871 161.87 31.557C161.859 29.9074 161.691 28.2549 161.376 26.6335C161.383 26.6502 161.393 26.6626 161.402 26.6681C161.583 26.7823 163.293 25.9341 164.372 24.2377C165.452 22.5412 165.875 20.8755 165.318 20.5212C164.758 20.1676 163.427 21.2552 162.347 22.9516C161.488 24.2991 161.284 25.7798 161.327 26.3892C160.99 24.7291 160.502 23.0974 159.868 21.5332C158.86 19.0442 157.216 16.7636 155.19 14.9974L155.004 14.8588C154.306 14.1853 153.539 13.4972 152.902 13.0287C152.262 12.5575 151.603 12.1884 151.062 11.8889L151.027 11.8635L149.9 11.1613C150.005 10.9715 149.084 9.30838 147.337 8.30138C145.591 7.29439 143.908 6.94328 143.575 7.51632L143.566 7.48923ZM151.11 5.88929C150.468 6.05873 150.373 7.77465 150.896 9.71924C151.418 11.6638 152.791 12.9869 152.998 12.9319C153.205 12.8769 153.735 11.0465 153.213 9.10192C152.69 7.15733 151.748 5.7206 151.11 5.88929ZM156.996 9.39121C156.333 9.39412 155.801 11.0249 155.805 13.0362C155.81 15.0474 156.801 16.6775 157.015 16.6755C157.23 16.6734 158.21 15.0418 158.206 13.0305C158.201 11.0193 157.659 9.3883 156.996 9.39121ZM161.757 14.2935C161.116 14.128 160.183 15.5713 159.677 17.5165C159.169 19.4624 159.713 21.2895 159.918 21.3441C160.126 21.398 161.492 20.0663 161.997 18.1211C162.506 16.1752 162.397 14.4591 161.757 14.2935ZM154.705 23.2443C154.389 23.8248 155.571 25.0756 157.344 26.0334C159.116 26.9912 161.022 26.9053 161.124 26.7163C161.226 26.5273 160.258 24.885 158.485 23.9272C156.713 22.9694 155.022 22.6637 154.705 23.2443ZM156.295 31.8204C155.783 32.2387 156.401 33.8429 157.678 35.401C158.953 36.9598 160.752 37.599 160.916 37.4657C161.081 37.3324 160.811 35.4432 159.533 33.8851C158.259 32.3263 156.807 31.4021 156.295 31.8204Z" fill="black"/>
<path fill-rule="evenodd" clip-rule="evenodd" d="M35.6552 7.48923C35.9879 8.06227 34.839 9.34212 33.0924 10.3491C31.7777 11.1097 30.3682 11.2752 29.7074 11.229C28.6386 11.7436 27.648 12.3185 26.7293 12.9488L26.629 13.0257C27.2292 12.8443 28.6977 12.7096 30.1911 13.2242C32.0958 13.8774 33.4661 14.9153 33.2515 15.5427C33.0368 16.1701 31.3146 16.1453 29.4099 15.4921C27.6374 14.8852 26.4559 13.5783 26.3542 13.2364L25.2327 14.0819C25.0334 14.2468 24.841 14.4132 24.6521 14.5804L24.1205 15.0712C23.5879 15.5836 23.0879 16.1138 22.6226 16.6697C23.1555 16.3429 24.543 15.838 26.1194 15.9482C28.1295 16.0926 29.721 16.7446 29.6744 17.4042C29.6278 18.0638 27.9562 18.4827 25.9461 18.3383C24.0618 18.2025 22.5752 17.2308 22.4093 16.9335C21.3445 18.2458 20.4669 19.6708 19.7631 21.1692C20.2377 20.7064 21.415 19.9238 22.9001 19.6434C24.8822 19.2724 26.5871 19.4973 26.7098 20.1493C26.8325 20.8013 25.3253 21.6265 23.3433 21.9975C21.54 22.3338 19.895 21.8123 19.5852 21.5571C19.0056 22.8673 18.5567 24.2308 18.231 25.6314C17.8731 27.3018 17.6825 29.0077 17.6325 30.7037L17.6931 31.7645C17.8537 31.151 18.4921 29.8388 19.6877 28.8345C21.2271 27.536 22.8261 26.8942 23.2535 27.4C23.6809 27.9059 22.7769 29.3689 21.2376 30.6675C19.7881 31.887 18.0386 32.2275 17.7176 32.1263L17.9009 35.302C18.2495 37.7741 18.8737 40.185 19.8364 42.4787C19.7257 41.9748 19.8038 40.3686 20.6426 38.8698C21.6273 37.1147 22.8971 35.9515 23.473 36.2743C24.0524 36.5979 23.7202 38.2846 22.7354 40.0397C21.7506 41.7949 20.0902 42.7402 19.9049 42.6352C19.9014 42.6344 19.8987 42.6302 19.8987 42.6302C20.0716 43.0309 20.2522 43.4296 20.4448 43.8236L22.1663 46.7266C22.0557 46.0007 22.0494 44.8059 22.4717 43.6005C23.134 41.7002 24.1806 40.3367 24.8083 40.5541C25.4325 40.7708 25.4032 42.4893 24.7374 44.3888C24.1654 46.0208 23.0051 47.1491 22.5601 47.389L22.7795 47.7596L25.428 51.082C25.1778 50.3955 24.9324 49.1934 25.1309 47.893C25.433 45.9051 26.2099 44.3714 26.8665 44.4712C27.523 44.5711 27.8051 46.2649 27.503 48.2528C27.2432 49.9586 26.3083 51.2768 25.9146 51.6005C26.9887 52.6771 28.1513 53.6125 29.4083 54.4479C29.0437 53.8026 28.6313 52.7505 28.5657 51.543C28.4604 49.5339 28.9105 47.8759 29.5702 47.8418C30.2334 47.8084 30.8531 49.4068 30.9618 51.4167C31.0465 53.0285 30.4845 54.4261 30.1514 54.9264C30.3767 55.0654 30.6063 55.2017 30.8394 55.3386L34.1011 56.8704C33.6108 56.3184 33.0132 55.416 32.6905 54.303C32.1354 52.369 32.1968 50.6537 32.8341 50.4692C33.4713 50.2848 34.4387 51.7062 34.9938 53.6402C35.4521 55.2261 35.1982 56.7512 34.9793 57.2795L37.5633 58.3685C38.3942 58.8111 39.1846 59.4598 39.6778 60.2708L40.1073 61.1919C40.1734 61.4789 39.9955 61.7649 39.7072 61.8344C39.4197 61.9005 39.1333 61.7231 39.0638 61.4354C38.9411 60.9362 38.7961 60.4905 38.4188 60.1081C37.3579 59.0379 36.0106 58.4707 34.6484 57.9222C34.3596 58.4028 33.2715 59.5173 31.7021 60.089C29.808 60.7808 28.0903 60.8369 27.863 60.2136C27.635 59.5937 28.986 58.5279 30.8793 57.8397C31.8242 57.4952 32.7677 57.4123 33.4789 57.4438C33.162 57.3071 32.8465 57.1635 32.541 57.0075C31.5786 56.515 30.6469 55.9817 29.7472 55.4007C29.5492 55.7297 28.1332 56.7416 26.2958 56.9651C24.2965 57.2123 22.6078 56.878 22.5257 56.2238C22.4443 55.566 24.0005 54.835 26.0032 54.5885C27.2091 54.4379 28.3232 54.6643 29.0211 54.9113C27.7591 54.0311 26.5755 53.0403 25.4985 51.9266C25.2073 52.2139 23.6321 52.8972 21.8115 52.7531C19.8017 52.5906 18.2166 51.9254 18.2709 51.2638C18.3245 50.6057 19.9965 50.2014 22.0064 50.364C23.2641 50.4645 24.34 50.9375 24.966 51.3329L22.4069 48.0186C22.3158 47.8828 22.2219 47.7427 22.1307 47.6068C21.9075 47.8322 20.1622 48.2718 18.3156 47.7729C16.3693 47.2455 14.9356 46.2996 15.1091 45.6598C15.2827 45.0199 17.0002 44.931 18.9464 45.4584C20.2274 45.8077 21.2371 46.5213 21.7623 47.0298C20.9142 45.6811 20.1502 44.263 19.5315 42.7958C19.1002 42.955 17.4319 43.018 15.823 42.2604C13.9986 41.4024 12.7497 40.223 13.0346 39.6251C13.3159 39.0264 15.0238 39.2374 16.8482 40.0955C17.9174 40.5998 18.7225 41.3499 19.186 41.9253C19.1832 41.9211 19.184 41.9176 19.1812 41.9134L18.0094 37.5338C17.7844 37.6823 15.9459 37.5199 14.3537 36.3947C12.7075 35.2326 11.6836 33.8537 12.0656 33.3129C12.4475 32.772 14.0928 33.2753 15.739 34.4375C16.9738 35.3082 17.7114 36.5097 17.9506 37.1283L17.3811 32.9825C17.366 32.6955 17.3587 32.4065 17.3549 32.1182C17.0699 32.2067 15.3226 31.7034 13.982 30.3226C12.5779 28.8809 11.8268 27.3345 12.3007 26.8751C12.7753 26.4122 14.2991 27.2099 15.7024 28.6551C16.6824 29.6607 17.1884 30.871 17.3512 31.557C17.3621 29.9074 17.5304 28.2549 17.845 26.6335C17.8378 26.6502 17.8278 26.6626 17.8194 26.6681C17.6382 26.7823 15.9283 25.9341 14.8486 24.2377C13.7688 22.5412 13.3458 20.8755 13.9028 20.5212C14.4633 20.1676 15.7939 21.2552 16.8736 22.9516C17.733 24.2991 17.9368 25.7798 17.8937 26.3892C18.2312 24.7291 18.7194 23.0974 19.3535 21.5332C20.3606 19.0442 22.0047 16.7636 24.0306 14.9974L24.217 14.8588C24.9153 14.1853 25.6824 13.4972 26.3186 13.0287C26.959 12.5575 27.6176 12.1884 28.1592 11.8889L28.1938 11.8635L29.321 11.1613C29.2159 10.9715 30.1372 9.30838 31.8838 8.30138C33.6304 7.29439 35.3129 6.94328 35.6457 7.51632L35.6552 7.48923ZM28.1109 5.88929C28.7525 6.05873 28.8477 7.77465 28.3253 9.71924C27.8029 11.6638 26.4296 12.9869 26.2227 12.9319C26.0158 12.8769 25.4859 11.0465 26.0083 9.10192C26.5307 7.15733 27.4728 5.7206 28.1109 5.88929ZM22.2251 9.39121C22.8878 9.39412 23.4203 11.0249 23.4158 13.0362C23.4112 15.0474 22.4204 16.6775 22.2058 16.6755C21.9912 16.6734 21.0106 15.0418 21.0151 13.0305C21.0197 11.0193 21.5624 9.3883 22.2251 9.39121ZM17.4643 14.2935C18.1048 14.128 19.0383 15.5713 19.5436 17.5165C20.0523 19.4624 19.5077 21.2895 19.3029 21.3441C19.0945 21.398 17.7288 20.0663 17.2235 18.1211C16.7148 16.1752 16.8238 14.4591 17.4643 14.2935ZM24.5158 23.2443C24.8324 23.8248 23.6496 25.0756 21.8771 26.0334C20.1046 26.9912 18.1986 26.9053 18.097 26.7163C17.9953 26.5273 18.9632 24.885 20.7357 23.9272C22.5082 22.9694 24.1992 22.6637 24.5158 23.2443ZM22.9258 31.8204C23.4376 32.2387 22.8205 33.8429 21.5426 35.401C20.2682 36.9598 18.4693 37.599 18.3047 37.4657C18.1401 37.3324 18.4101 35.4432 19.6879 33.8851C20.9623 32.3263 22.4141 31.4021 22.9258 31.8204Z" fill="black"/>
<path d="M53.2772 43.3552C52.3085 44.5646 51.6627 46.0382 51.6627 48.3925C51.6627 50.7409 52.379 52.5315 53.2244 53.6235L54.6687 53.6235C53.8702 52.1969 53.242 50.6176 53.242 48.3807C53.242 46.1028 53.9876 44.1712 54.6863 43.3552L53.2772 43.3552ZM59.0538 43.7779C57.9677 45.4863 56.8815 47.2652 55.9422 49.0265L55.9422 50.3064L59.817 50.3064L59.817 51.7918L61.3083 51.7918L61.3083 50.3064L62.2887 50.3064L62.2887 49.0265L61.3083 49.0265L61.3083 43.7779L59.0538 43.7779ZM57.3806 49.0265L57.3806 49.0089C58.0968 47.6469 58.9423 46.2496 59.7642 44.9756L59.817 44.9756L59.817 49.0265L57.3806 49.0265ZM64.3313 51.0051C64.3313 51.51 64.7423 51.9209 65.2413 51.9209C65.7404 51.9209 66.1513 51.51 66.1513 51.0051C66.1513 50.506 65.7404 50.0951 65.2413 50.0951C64.7423 50.0951 64.3313 50.506 64.3313 51.0051ZM68.3936 49.7428C68.4464 50.735 69.3271 51.9386 71.1118 51.9386C73.1256 51.9386 74.2763 50.324 74.2763 47.688C74.2763 44.9168 73.0786 43.6311 71.1588 43.6311C69.6382 43.6311 68.2879 44.6292 68.2879 46.4022C68.2879 48.1107 69.4738 49.0207 70.7713 49.0207C71.8927 49.0207 72.5209 48.4394 72.7088 47.87L72.7851 47.87C72.8203 49.3964 72.3213 50.6939 71.1471 50.6939C70.4015 50.6939 69.9494 50.2184 69.8789 49.7428L68.3936 49.7428ZM72.6031 46.3787C72.6031 47.23 71.9631 47.8347 71.1823 47.8347C70.4249 47.8347 69.8026 47.324 69.8026 46.3611C69.8026 45.3865 70.4602 44.8757 71.2058 44.8757C71.9925 44.8757 72.6031 45.4041 72.6031 46.3787ZM83.1464 43.7779L79.9467 43.7779L79.9467 51.7918L81.5084 51.7918L81.5084 48.8034L82.935 48.8034L84.3382 51.7918L86.1112 51.7918L84.4967 48.5627C85.1073 48.322 85.9586 47.6292 85.9586 46.3141C85.9586 44.8992 85.0486 43.7779 83.1464 43.7779ZM81.5084 47.6116L81.5084 45.0225L82.9174 45.0225C83.7335 45.0225 84.3206 45.4628 84.3206 46.3435C84.3206 47.1713 83.7863 47.6116 82.8939 47.6116L81.5084 47.6116ZM90.0032 51.8857C90.9191 51.8857 91.4475 51.4924 91.6941 51.0344L91.7587 51.0344L91.7587 51.7918L93.2205 51.7918L93.2205 47.5823C93.2205 46.1321 92.1285 45.4628 90.696 45.4628C88.8995 45.4628 88.2302 46.4257 88.1832 47.4649L89.6275 47.4649C89.6686 46.9658 90.0326 46.6312 90.6666 46.6312C91.3183 46.6312 91.6941 46.9776 91.6941 47.5999L91.6941 48.1635L90.1735 48.1635C88.7292 48.1635 87.9542 48.8798 87.9542 49.9953C87.9542 51.1695 88.7879 51.8857 90.0032 51.8857ZM90.5023 50.7585C89.9856 50.7585 89.4924 50.4767 89.4924 49.8954C89.4924 49.4199 89.8271 49.0911 90.5081 49.0911L91.6941 49.0911L91.6941 49.7487C91.6941 50.3534 91.1657 50.7585 90.5023 50.7585ZM96.179 45.5627L95.269 45.5627L95.269 46.7603L96.1497 46.7603L96.1497 50.0305C96.1497 51.3045 96.6604 51.827 98.2104 51.827C98.5215 51.827 98.7975 51.7977 98.9149 51.7742L98.9149 50.6293C98.8445 50.6352 98.7153 50.6411 98.5861 50.6411C97.9462 50.6411 97.682 50.4532 97.682 49.8309L97.682 46.7603L98.8914 46.7603L98.8914 45.5627L97.682 45.5627L97.682 44.0714L96.179 44.0714L96.179 45.5627ZM101.204 44.0186C101.204 44.5 101.603 44.8288 102.079 44.8288C102.56 44.8288 102.954 44.5 102.954 44.0186C102.954 43.5372 102.56 43.2025 102.079 43.2025C101.603 43.2025 101.204 43.5372 101.204 44.0186ZM101.31 51.7918L102.854 51.7918L102.854 45.5627L101.31 45.5627L101.31 51.7918ZM105.472 51.7918L107.01 51.7918L107.01 48.14C107.01 47.3533 107.444 46.778 108.243 46.778C108.906 46.778 109.458 47.1596 109.458 48.1165L109.458 51.7918L111.002 51.7918L111.002 47.7819C111.002 46.2554 110.116 45.4628 108.848 45.4628C107.808 45.4628 107.239 46.0441 107.039 46.4727L106.975 46.4727L106.975 45.5627L105.472 45.5627L105.472 51.7918ZM116.121 52.9366C115.44 52.9366 114.982 52.6196 114.883 52.1793L113.385 52.1793C113.473 53.2184 114.307 54.0697 116.098 54.0697C117.507 54.0697 118.992 53.418 118.992 51.7155L118.992 45.5627L117.466 45.5627L117.466 46.4785L117.401 46.4785C117.149 45.909 116.485 45.4805 115.628 45.4805C114.207 45.4805 113.25 46.502 113.25 48.3925L113.25 48.78C113.25 50.6939 114.213 51.7096 115.628 51.7096C116.497 51.7096 117.149 51.2751 117.384 50.7291L117.448 50.7291L117.448 51.6156C117.448 52.4552 116.949 52.9366 116.121 52.9366ZM116.157 46.7134C116.932 46.7134 117.448 47.3474 117.448 48.4453L117.448 48.8093C117.448 49.9189 116.955 50.5471 116.157 50.5471C115.335 50.5471 114.836 49.9248 114.836 48.8093L114.836 48.4453C114.836 47.324 115.335 46.7134 116.157 46.7134ZM124.387 43.3552C125.079 44.1712 125.831 46.1028 125.831 48.3807C125.831 50.6176 125.203 52.1969 124.398 53.6235L125.843 53.6235C126.694 52.5315 127.404 50.7409 127.404 48.3925C127.404 46.0382 126.759 44.5646 125.79 43.3552L124.387 43.3552Z" fill="black"/>
<g clip-path="url(#clip0_3002_10)">
<path d="M49.9593 22.8547L48.3967 17.7494C48.0884 16.7473 46.664 16.7473 46.3663 17.7494L44.793 22.8547H40.0626C39.0315 22.8547 38.6063 24.1732 39.446 24.7639L43.3154 27.5064L41.7953 32.369C41.487 33.35 42.6351 34.1411 43.4536 33.5188L47.3762 30.5653L51.2987 33.5293C52.1173 34.1516 53.2653 33.3605 52.957 32.3796L51.4369 27.5169L55.3063 24.7744C56.1461 24.1732 55.7209 22.8652 54.6898 22.8652H49.9593V22.8547Z" fill="black"/>
</g>
<g clip-path="url(#clip1_3002_10)">
<path d="M71.0223 22.8547L69.4597 17.7494C69.1514 16.7473 67.727 16.7473 67.4293 17.7494L65.8561 22.8547H61.1256C60.0945 22.8547 59.6693 24.1732 60.5091 24.7639L64.3785 27.5064L62.8583 32.369C62.5501 33.35 63.6981 34.1411 64.5166 33.5188L68.4392 30.5653L72.3617 33.5293C73.1803 34.1516 74.3283 33.3605 74.0201 32.3796L72.4999 27.5169L76.3693 24.7744C77.2091 24.1732 76.7839 22.8652 75.7528 22.8652H71.0223V22.8547Z" fill="black"/>
</g>
<g clip-path="url(#clip2_3002_10)">
<path d="M92.0815 22.8545L90.5189 17.7492C90.2106 16.7471 88.7861 16.7471 88.4885 17.7492L86.9152 22.8545H82.1848C81.1537 22.8545 80.7284 24.173 81.5682 24.7637L85.4376 27.5062L83.9175 32.3688C83.6092 33.3498 84.7573 34.1409 85.5758 33.5186L89.4984 30.5651L93.4209 33.5291C94.2394 34.1514 95.3875 33.3603 95.0792 32.3794L93.5591 27.5167L97.4285 24.7742C98.2683 24.173 97.8431 22.865 96.812 22.865H92.0815V22.8545Z" fill="black"/>
</g>
<g clip-path="url(#clip3_3002_10)">
<path d="M113.145 22.8545L111.583 17.7492C111.274 16.7471 109.85 16.7471 109.552 17.7492L107.979 22.8545H103.249C102.217 22.8545 101.792 24.173 102.632 24.7637L106.501 27.5062L104.981 32.3688C104.673 33.3498 105.821 34.1409 106.64 33.5186L110.562 30.5651L114.485 33.5291C115.303 34.1514 116.451 33.3603 116.143 32.3794L114.623 27.5167L118.492 24.7742C119.332 24.173 118.907 22.865 117.876 22.865H113.145V22.8545Z" fill="black"/>
</g>
<g clip-path="url(#clip4_3002_10)">
<path d="M134.206 22.8547L132.643 17.7494C132.335 16.7473 130.911 16.7473 130.613 17.7494L129.04 22.8547H124.309C123.278 22.8547 122.853 24.1732 123.693 24.7639L127.562 27.5064L126.042 32.369C125.734 33.35 126.882 34.1411 127.7 33.5188L131.623 30.5653L135.545 33.5293C136.364 34.1516 137.512 33.3605 137.204 32.3796L135.684 27.5169L139.553 24.7744C140.393 24.1732 139.968 22.8652 138.936 22.8652H134.206V22.8547Z" fill="black"/>
</g>
<defs>
<clipPath id="clip0_3002_10">
<rect width="16.7524" height="16.7524" fill="white" transform="translate(39 17)"/>
</clipPath>
<clipPath id="clip1_3002_10">
<rect width="16.7524" height="16.7524" fill="white" transform="translate(60.0619 17)"/>
</clipPath>
<clipPath id="clip2_3002_10">
<rect width="16.7524" height="16.7524" fill="white" transform="translate(81.1238 17)"/>
</clipPath>
<clipPath id="clip3_3002_10">
<rect width="16.7524" height="16.7524" fill="white" transform="translate(102.186 17)"/>
</clipPath>
<clipPath id="clip4_3002_10">
<rect width="16.7524" height="16.7524" fill="white" transform="translate(123.248 17)"/>
</clipPath>
</defs>
</svg>
