<svg width="341" height="417" viewBox="0 0 341 417" fill="none" xmlns="http://www.w3.org/2000/svg">
<path d="M169.585 255C192.686 264.383 213.153 255.746 222.763 232.086L252.286 159.4C268.14 120.368 252.83 83.638 214.286 67.9824C176.375 52.5838 140.613 68.2003 124.862 106.979C120.541 117.616 119.222 126.652 119.689 134.851C119.71 135.215 119.734 135.577 119.761 135.937C119.811 136.583 120.306 137.102 120.945 137.215C124.128 137.777 127.292 138.679 130.397 139.94C131.327 140.318 132.238 140.723 133.13 141.153C134.232 141.684 135.542 140.721 135.355 139.512C135.307 139.201 135.262 138.89 135.22 138.578C134.17 130.815 134.92 122.515 138.912 112.686C151.221 82.3843 179.089 70.0469 208.582 82.0264C238.771 94.2887 250.661 122.923 238.173 153.667L208.88 225.784C202.713 240.967 189.733 246.602 174.734 240.509C163.025 235.753 157.185 226.896 155.768 213.866C155.577 212.305 153.361 211.917 152.552 213.265C149.941 217.616 146.781 221.48 143.212 224.793C142.734 225.236 142.535 225.91 142.726 226.532C146.754 239.624 155.695 249.358 169.585 255Z" fill="black"/>
<path d="M184.43 205.02C193.67 208.773 202.172 205.814 205.461 197.717C208.708 189.723 205.009 184.823 201.73 180.478C199.118 177.017 196.772 173.909 198.412 169.87C199.664 166.789 203.255 165.038 207.592 162.924C214.206 159.701 222.555 155.631 226.993 144.704C235.139 124.651 225.922 103.957 203.518 94.8565C180.797 85.6276 159.492 94.514 150.319 117.098C148.931 120.514 150.648 124.454 154.003 125.817C157.42 127.205 161.336 125.553 162.723 122.137C168.942 106.827 183.039 100.983 198.481 107.256C213.481 113.348 219.83 126.761 214.589 139.666C211.368 147.594 204.351 150.408 196.76 153.452C187.816 157.039 178.075 160.946 172.807 173.915C167.616 186.693 172.114 199.943 184.43 205.02Z" fill="black"/>
<path fill-rule="evenodd" clip-rule="evenodd" d="M112.769 226.612C90.0862 226.612 71.6984 208.224 71.6984 185.541C71.6984 162.859 90.0862 144.471 112.769 144.471C135.451 144.471 153.839 162.859 153.839 185.541C153.839 208.224 135.451 226.612 112.769 226.612ZM125.489 190.536L137.318 190.536C139.146 190.536 140.583 189.119 140.583 187.332C140.583 185.525 139.146 184.067 137.318 184.067L127.748 184.067L122.368 158.972C121.649 155.686 116.864 155.769 116.35 159.013L110.539 194.849L105.384 171.663C104.686 168.419 99.8598 168.378 99.141 171.561L96.3892 184.067L87.8669 184.067C86.0185 184.067 84.6015 185.464 84.6015 187.332C84.6015 189.119 86.0597 190.536 87.8669 190.536L98.3196 190.536C100.229 190.536 101.421 189.55 101.79 187.661L102.119 185.957L107.458 211.606C108.115 214.913 113.188 214.913 113.742 211.586L119.534 176.325L122.039 187.969C122.429 189.633 123.661 190.536 125.489 190.536Z" fill="black"/>
<path d="M153.336 55.4008C153.45 52.0975 150.43 49.554 147.309 50.6408C143.259 52.0509 139.401 53.9863 135.837 56.4045C132.267 58.8136 129.035 61.6747 126.22 64.9099C124.05 67.4035 125.288 71.153 128.396 72.2772C130.503 73.0391 132.836 72.3145 134.349 70.6621C136.444 68.3745 138.803 66.3382 141.38 64.5976C143.955 62.8508 146.723 61.4166 149.626 60.322C151.721 59.5323 153.259 57.6378 153.336 55.4008ZM154.038 34.6767C154.143 31.5708 151.423 29.1059 148.39 29.786C139.954 31.6777 131.932 35.143 124.75 40.0183C117.349 45.0257 111.224 51.214 106.458 58.1578C104.699 60.7198 105.976 64.161 108.898 65.2186C111.149 66.0333 113.643 65.1311 115.022 63.1744C119.154 57.3096 124.326 52.2361 130.293 48.2114C136.249 44.1698 142.882 41.2556 149.863 39.6004C152.192 39.0482 153.957 37.0686 154.038 34.6767Z" fill="black"/>
<path d="M77.0643 330H80.6736V319.704H92.6136V330H96.2068V306.749H92.6136V316.578H80.6736V306.749H77.0643V330ZM108.743 330.338C113.223 330.338 115.64 327.76 116.22 325.456L116.252 325.311L112.885 325.327L112.82 325.456C112.401 326.358 111.064 327.47 108.824 327.47C105.94 327.47 104.103 325.521 104.038 322.169H116.446V320.944C116.446 315.691 113.449 312.163 108.566 312.163C103.684 312.163 100.526 315.82 100.526 321.283V321.299C100.526 326.842 103.619 330.338 108.743 330.338ZM108.582 315.031C110.951 315.031 112.707 316.545 112.981 319.671H104.087C104.393 316.658 106.198 315.031 108.582 315.031ZM125.163 330.29C127.484 330.29 129.321 329.291 130.352 327.519H130.626V330H134.09V318.028C134.09 314.354 131.609 312.163 127.21 312.163C123.23 312.163 120.474 314.08 120.056 316.948L120.039 317.061H123.407L123.423 316.997C123.842 315.756 125.115 315.047 127.049 315.047C129.417 315.047 130.626 316.11 130.626 318.028V319.575L125.889 319.849C121.715 320.106 119.363 321.927 119.363 325.053V325.085C119.363 328.26 121.828 330.29 125.163 330.29ZM122.843 324.94V324.908C122.843 323.329 123.939 322.459 126.356 322.314L130.626 322.04V323.539C130.626 325.794 128.708 327.502 126.098 327.502C124.213 327.502 122.843 326.552 122.843 324.94ZM138.78 330H142.276V319.542C142.276 317.013 144.097 315.369 146.772 315.369C147.433 315.369 148.029 315.45 148.657 315.579V312.356C148.303 312.275 147.69 312.195 147.126 312.195C144.79 312.195 143.163 313.291 142.534 315.144H142.276V312.501H138.78V330ZM153.572 309.375C154.765 309.375 155.764 308.392 155.764 307.2C155.764 305.991 154.765 305.008 153.572 305.008C152.364 305.008 151.381 305.991 151.381 307.2C151.381 308.392 152.364 309.375 153.572 309.375ZM151.816 330H155.296V312.501H151.816V330ZM160.147 330H163.644V319.736C163.644 316.916 165.239 315.16 167.801 315.16C170.363 315.16 171.571 316.594 171.571 319.494V330H175.052V318.672C175.052 314.499 172.893 312.163 168.977 312.163C166.431 312.163 164.755 313.291 163.901 315.16H163.644V312.501H160.147V330ZM187.089 336.171C192.052 336.171 195.194 333.625 195.194 329.646V312.501H191.713V315.369H191.504C190.489 313.403 188.587 312.195 186.138 312.195C181.594 312.195 178.807 315.724 178.807 320.719V320.751C178.807 325.682 181.578 329.146 186.074 329.146C188.475 329.146 190.408 328.083 191.472 326.181H191.73V329.629C191.73 332.014 190.021 333.368 187.137 333.368C184.769 333.368 183.351 332.514 183.061 331.305L183.044 331.273H179.516L179.483 331.305C179.902 334.222 182.642 336.171 187.089 336.171ZM187.041 326.262C184.06 326.262 182.384 323.99 182.384 320.735V320.703C182.384 317.448 184.06 315.16 187.041 315.16C189.989 315.16 191.794 317.448 191.794 320.703V320.735C191.794 324.006 190.005 326.262 187.041 326.262ZM207.377 330H211.163L213.274 323.716H222.169L224.263 330H228.066L219.671 306.749H215.772L207.377 330ZM217.576 310.825H217.85L221.202 320.815H214.241L217.576 310.825ZM233.287 309.375C234.48 309.375 235.479 308.392 235.479 307.2C235.479 305.991 234.48 305.008 233.287 305.008C232.079 305.008 231.096 305.991 231.096 307.2C231.096 308.392 232.079 309.375 233.287 309.375ZM231.531 330H235.011V312.501H231.531V330ZM246.243 330.29C248.692 330.29 250.61 329.162 251.625 327.245H251.899V330H255.379V305.637H251.899V315.272H251.625C250.69 313.387 248.644 312.195 246.243 312.195C241.796 312.195 238.992 315.691 238.992 321.234V321.267C238.992 326.761 241.844 330.29 246.243 330.29ZM247.242 327.309C244.309 327.309 242.553 325.021 242.553 321.267V321.234C242.553 317.48 244.309 315.192 247.242 315.192C250.142 315.192 251.947 317.496 251.947 321.234V321.267C251.947 325.005 250.158 327.309 247.242 327.309ZM168.325 371.435C171.499 371.435 173.997 370.5 175.85 368.905L177.767 371H181.989V370.984L177.832 366.569C179.153 364.426 179.781 361.735 179.781 358.706V358.045H176.639V358.577C176.639 360.655 176.285 362.557 175.543 364.152L170.291 358.577C173.884 356.627 175.237 354.838 175.237 352.55V352.518C175.237 349.457 172.659 347.265 169.098 347.265C165.553 347.265 162.911 349.489 162.911 352.534V352.566C162.911 354.146 163.652 355.515 165.843 357.948L164.925 358.416C161.831 359.979 160.365 362.041 160.365 364.829V364.861C160.365 368.76 163.587 371.435 168.325 371.435ZM166.149 352.711V352.679C166.149 351.036 167.39 349.859 169.114 349.859C170.871 349.859 172.079 351.036 172.079 352.679V352.711C172.079 354.194 171.209 355.306 168.55 356.708C166.746 354.774 166.149 353.855 166.149 352.711ZM163.813 364.587V364.555C163.813 362.782 164.893 361.316 166.923 360.317L167.664 359.946L173.803 366.666C172.546 367.906 170.838 368.631 168.663 368.631C165.763 368.631 163.813 367.004 163.813 364.587ZM100.325 412H103.934V391.858H111.233V388.749H93.0091V391.858H100.325V412ZM112.797 412H116.293V401.542C116.293 399.013 118.114 397.369 120.789 397.369C121.45 397.369 122.046 397.45 122.674 397.579V394.356C122.32 394.275 121.707 394.195 121.143 394.195C118.807 394.195 117.18 395.291 116.551 397.144H116.293V394.501H112.797V412ZM130.441 412.29C132.762 412.29 134.599 411.291 135.63 409.519H135.904V412H139.368V400.028C139.368 396.354 136.887 394.163 132.488 394.163C128.508 394.163 125.752 396.08 125.333 398.948L125.317 399.061H128.685L128.701 398.997C129.12 397.756 130.393 397.047 132.327 397.047C134.695 397.047 135.904 398.11 135.904 400.028V401.575L131.166 401.849C126.993 402.106 124.641 403.927 124.641 407.053V407.085C124.641 410.26 127.106 412.29 130.441 412.29ZM128.121 406.94V406.908C128.121 405.329 129.217 404.459 131.634 404.314L135.904 404.04V405.539C135.904 407.794 133.986 409.502 131.376 409.502C129.491 409.502 128.121 408.552 128.121 406.94ZM144.058 412H147.554V401.736C147.554 398.916 149.149 397.16 151.711 397.16C154.273 397.16 155.482 398.594 155.482 401.494V412H158.962V400.672C158.962 396.499 156.803 394.163 152.888 394.163C150.342 394.163 148.666 395.291 147.812 397.16H147.554V394.501H144.058V412ZM169.968 412.338C174.125 412.338 177.219 410.131 177.219 406.892V406.86C177.219 404.33 175.608 402.896 172.24 402.106L169.469 401.478C167.503 401.011 166.697 400.334 166.697 399.238V399.206C166.697 397.804 168.083 396.854 170 396.854C171.966 396.854 173.207 397.772 173.545 398.997V399.029H176.881V399.013C176.575 396.161 174.013 394.163 170.017 394.163C166.053 394.163 163.217 396.354 163.217 399.399V399.416C163.217 401.978 164.748 403.476 168.051 404.233L170.838 404.878C172.869 405.345 173.69 406.086 173.69 407.182V407.214C173.69 408.648 172.192 409.631 170.033 409.631C167.954 409.631 166.681 408.745 166.246 407.424L166.23 407.408H162.733V407.424C163.072 410.356 165.747 412.338 169.968 412.338ZM188.515 412.338C192.85 412.338 195.347 410.002 195.976 406.602L196.008 406.457H192.656L192.624 406.538C192.06 408.423 190.707 409.422 188.515 409.422C185.631 409.422 183.842 407.069 183.842 403.202V403.17C183.842 399.399 185.599 397.079 188.515 397.079C190.835 397.079 192.253 398.368 192.64 400.092L192.656 400.141L196.008 400.125V400.044C195.524 396.644 192.898 394.163 188.499 394.163C183.391 394.163 180.281 397.627 180.281 403.17V403.202C180.281 408.858 183.407 412.338 188.515 412.338ZM199.731 412H203.227V401.542C203.227 399.013 205.048 397.369 207.723 397.369C208.383 397.369 208.98 397.45 209.608 397.579V394.356C209.253 394.275 208.641 394.195 208.077 394.195C205.741 394.195 204.113 395.291 203.485 397.144H203.227V394.501H199.731V412ZM214.523 391.375C215.715 391.375 216.714 390.392 216.714 389.2C216.714 387.991 215.715 387.008 214.523 387.008C213.315 387.008 212.332 387.991 212.332 389.2C212.332 390.392 213.315 391.375 214.523 391.375ZM212.767 412H216.247V394.501H212.767V412ZM230.395 412.29C234.81 412.29 237.646 408.761 237.646 403.267V403.234C237.646 397.691 234.842 394.195 230.395 394.195C227.994 394.195 225.948 395.387 225.013 397.272H224.755V387.637H221.259V412H224.755V409.245H225.013C226.028 411.162 227.946 412.29 230.395 412.29ZM229.412 409.309C226.496 409.309 224.691 407.005 224.691 403.267V403.234C224.691 399.496 226.496 397.192 229.412 397.192C232.329 397.192 234.085 399.48 234.085 403.234V403.267C234.085 407.021 232.329 409.309 229.412 409.309ZM248.926 412.338C253.405 412.338 255.822 409.76 256.403 407.456L256.435 407.311L253.067 407.327L253.003 407.456C252.584 408.358 251.246 409.47 249.007 409.47C246.122 409.47 244.285 407.521 244.221 404.169H256.628V402.944C256.628 397.691 253.631 394.163 248.749 394.163C243.866 394.163 240.708 397.82 240.708 403.283V403.299C240.708 408.842 243.802 412.338 248.926 412.338ZM248.765 397.031C251.133 397.031 252.89 398.545 253.164 401.671H244.269C244.575 398.658 246.38 397.031 248.765 397.031Z" fill="black"/>
</svg>
