<svg width="95" height="95" viewBox="0 0 95 95" fill="none" xmlns="http://www.w3.org/2000/svg">
<circle cx="47.5" cy="47.5" r="45.5" stroke="black" stroke-width="4"/>
<path fill-rule="evenodd" clip-rule="evenodd" d="M47.6334 57.7703H46.5525C39.1242 57.7703 33.1032 51.8216 33.1032 44.4892V30.1998C33.1032 22.8644 39.1242 16.9186 46.5525 16.9186H47.6334C55.0616 16.9186 61.0857 22.8644 61.0857 30.1998V44.4892C61.0857 51.8216 55.0616 57.7703 47.6334 57.7703ZM67.3761 44.0647C67.3761 42.4296 68.7174 41.108 70.3701 41.108C72.0228 41.108 73.3642 42.4296 73.3642 44.0647C73.3642 57.3665 63.1664 68.3504 50.0883 69.8258V75.7774C50.0883 77.4095 48.747 78.7341 47.0943 78.7341C45.4386 78.7341 44.1002 77.4095 44.1002 75.7774V69.8258C31.0191 68.3504 20.8214 57.3665 20.8214 44.0647C20.8214 42.4296 22.1627 41.108 23.8154 41.108C25.4682 41.108 26.8095 42.4296 26.8095 44.0647C26.8095 55.1077 35.9085 64.0929 47.0943 64.0929C58.2771 64.0929 67.3761 55.1077 67.3761 44.0647Z" fill="black"/>
</svg>
