<svg width="30" height="30" viewBox="0 0 30 30" fill="none" xmlns="http://www.w3.org/2000/svg">
<path d="M25.4125 12.225H25.375C25.077 12.2232 24.7862 12.1333 24.5392 11.9664C24.2923 11.7996 24.1003 11.5633 23.9875 11.2875C23.9875 11.2842 23.9862 11.281 23.9838 11.2787C23.9815 11.2763 23.9783 11.275 23.975 11.275C23.8638 11.0001 23.8353 10.6986 23.8931 10.4077C23.9508 10.1168 24.0922 9.84913 24.3 9.6375L24.3375 9.6C24.7277 9.20828 24.9468 8.67791 24.9468 8.125C24.9468 7.57209 24.7277 7.04172 24.3375 6.65L23.35 5.675C22.9583 5.28479 22.4279 5.0657 21.875 5.0657C21.3221 5.0657 20.7917 5.28479 20.4 5.675L20.3875 5.7C20.171 5.90852 19.8983 6.04919 19.603 6.10471C19.3076 6.16024 19.0024 6.12818 18.725 6.0125C18.4454 5.90376 18.2051 5.71314 18.0356 5.46557C17.8661 5.21801 17.7752 4.92503 17.775 4.625V4.5875C17.776 4.31414 17.7231 4.04327 17.6193 3.79037C17.5155 3.53747 17.3629 3.30751 17.1702 3.11364C16.9775 2.91976 16.7485 2.76577 16.4962 2.66048C16.2439 2.55519 15.9734 2.50066 15.7 2.5H14.3C14.0266 2.50066 13.7561 2.55519 13.5038 2.66048C13.2515 2.76577 13.0225 2.91976 12.8298 3.11364C12.6371 3.30751 12.4845 3.53747 12.3807 3.79037C12.2769 4.04327 12.224 4.31414 12.225 4.5875V4.625C12.2244 4.92328 12.1349 5.2146 11.9679 5.46175C11.8009 5.7089 11.564 5.90065 11.2875 6.0125C11.0988 6.09685 10.8942 6.13949 10.6875 6.1375C10.4903 6.13798 10.295 6.09959 10.1127 6.02452C9.93038 5.94945 9.76466 5.83917 9.625 5.7L9.6 5.675C9.20828 5.28479 8.67791 5.0657 8.125 5.0657C7.57209 5.0657 7.04172 5.28479 6.65 5.675L5.6625 6.65C5.27229 7.04172 5.0532 7.57209 5.0532 8.125C5.0532 8.67791 5.27229 9.20828 5.6625 9.6L5.7 9.6375C5.9095 9.85068 6.05156 10.1209 6.10844 10.4143C6.16532 10.7077 6.1345 11.0114 6.01982 11.2874C5.90515 11.5635 5.7117 11.7996 5.46364 11.9663C5.21558 12.1331 4.92389 12.223 4.625 12.225H4.5875C4.03417 12.226 3.50378 12.4462 3.11251 12.8375C2.72124 13.2288 2.50099 13.7592 2.5 14.3125V15.7C2.50099 16.2533 2.72124 16.7837 3.11251 17.175C3.50378 17.5663 4.03417 17.7865 4.5875 17.7875H4.625C4.92397 17.785 5.21665 17.8733 5.46439 18.0407C5.71212 18.2081 5.90324 18.4467 6.0125 18.725C6.1258 19.0028 6.15658 19.3074 6.10116 19.6023C6.04573 19.8972 5.90645 20.1698 5.7 20.3875L5.675 20.4C5.28463 20.7942 5.06563 21.3265 5.06563 21.8812C5.06563 22.436 5.28463 22.9683 5.675 23.3625L6.65 24.3375C7.04172 24.7277 7.57209 24.9468 8.125 24.9468C8.67791 24.9468 9.20828 24.7277 9.6 24.3375L9.625 24.3125C9.83374 24.1001 10.1016 23.9556 10.3937 23.8976C10.6857 23.8396 10.9885 23.871 11.2625 23.9875C11.5443 24.0982 11.7865 24.2907 11.958 24.5402C12.1296 24.7897 12.2225 25.0848 12.225 25.3875V25.425C12.2243 25.6977 12.2776 25.9678 12.3816 26.2198C12.4857 26.4719 12.6385 26.7009 12.8313 26.8937C13.0241 27.0865 13.2531 27.2393 13.5052 27.3434C13.7572 27.4474 14.0273 27.5007 14.3 27.5H15.7C15.9727 27.5007 16.2428 27.4474 16.4948 27.3434C16.7469 27.2393 16.9759 27.0865 17.1687 26.8937C17.3615 26.7009 17.5143 26.4719 17.6184 26.2198C17.7224 25.9678 17.7757 25.6977 17.775 25.425V25.3875C17.7775 25.0848 17.8704 24.7897 18.042 24.5402C18.2135 24.2907 18.4557 24.0982 18.7375 23.9875C19.0115 23.871 19.3143 23.8396 19.6063 23.8976C19.8984 23.9556 20.1663 24.1001 20.375 24.3125L20.4 24.3375C20.7917 24.7277 21.3221 24.9468 21.875 24.9468C22.4279 24.9468 22.9583 24.7277 23.35 24.3375L24.325 23.3625C24.7154 22.9683 24.9344 22.436 24.9344 21.8812C24.9344 21.3265 24.7154 20.7942 24.325 20.4L24.3 20.3875C24.0936 20.1698 23.9543 19.8972 23.8988 19.6023C23.8434 19.3074 23.8742 19.0028 23.9875 18.725C24.0968 18.4467 24.2879 18.2081 24.5356 18.0407C24.7833 17.8733 25.076 17.785 25.375 17.7875H25.4125C25.9658 17.7865 26.4962 17.5663 26.8875 17.175C27.2788 16.7837 27.499 16.2533 27.5 15.7V14.3125C27.499 13.7592 27.2788 13.2288 26.8875 12.8375C26.4962 12.4462 25.9658 12.226 25.4125 12.225ZM15 19.375C14.1347 19.375 13.2888 19.1184 12.5694 18.6377C11.8499 18.1569 11.2892 17.4737 10.958 16.6742C10.6269 15.8748 10.5403 14.9951 10.7091 14.1465C10.8779 13.2978 11.2946 12.5183 11.9064 11.9064C12.5183 11.2946 13.2978 10.8779 14.1465 10.7091C14.9951 10.5403 15.8748 10.6269 16.6742 10.958C17.4737 11.2892 18.1569 11.8499 18.6377 12.5694C19.1184 13.2888 19.375 14.1347 19.375 15C19.375 16.1603 18.9141 17.2731 18.0936 18.0936C17.2731 18.9141 16.1603 19.375 15 19.375Z" fill="black"/>
</svg>
